<svg width="204" height="32" viewBox="0 0 204 32" fill="none" xmlns="http://www.w3.org/2000/svg">
<path d="M0 8C0 3.58172 3.58172 0 8 0H24C28.4183 0 32 3.58172 32 8V24C32 28.4183 28.4183 32 24 32H8C3.58172 32 0 28.4183 0 24V8Z" fill="#FFDD2D"/>
<mask id="mask0_1_13573" style="mask-type:alpha" maskUnits="userSpaceOnUse" x="0" y="0" width="32" height="32">
<path d="M0 8C0 3.58172 3.58172 0 8 0H24C28.4183 0 32 3.58172 32 8V24C32 28.4183 28.4183 32 24 32H8C3.58172 32 0 28.4183 0 24V8Z" fill="#FFDD2D"/>
</mask>
<g mask="url(#mask0_1_13573)">
<path fill-rule="evenodd" clip-rule="evenodd" d="M30 13.9522L29.6365 15.162C29.4438 15.7893 28.8111 16.8217 27.6338 16.9262C27.7627 17.4914 28.0497 18.1263 28.6833 18.3996L29.5956 18.7895L29.1034 19.6803C28.9923 19.8698 28.4194 20.7443 27.2243 20.7443C27.02 20.7443 26.8221 20.7225 26.6325 20.6811C26.5843 20.9022 26.5246 21.1243 26.4534 21.3454C26.1737 22.2111 26.4146 22.8134 26.4251 22.8384L26.865 23.8011L25.8553 24.0788L25.8542 24.0791C25.8329 24.0849 25.5315 24.167 25.1661 24.167C24.9933 24.167 24.8288 24.1485 24.6748 24.1104C24.5575 24.0821 24.4444 24.044 24.3365 23.9982C24.2056 24.2411 24.0474 24.4622 23.8641 24.6592C23.221 25.3475 22.3076 25.696 21.1502 25.696L20.3217 25.6851L22.0217 26.4223L20.7511 27.0637C20.3007 27.2924 19.7226 27.5854 19.1381 27.8076L19.3015 28.2682L18.8543 28.4806C18.8144 28.5002 17.9629 28.8954 16.5457 28.9826C16.5457 28.9826 16.2053 29 16.0157 29C15.8261 29 15.4815 28.9837 15.4815 28.9837C14.0576 28.8989 13.2003 28.5006 13.1575 28.4807L13.1573 28.4806L12.711 28.2693L12.8724 27.8097C12.3047 27.5941 11.7464 27.312 11.2761 27.0736L9.98142 26.4234L11.6867 25.6872L10.8613 25.6981H10.8571C9.70077 25.6981 8.78845 25.3496 8.14426 24.6625C7.95992 24.4643 7.80173 24.2432 7.67187 24.0004C7.56399 24.0461 7.45187 24.0842 7.33461 24.1126C7.17957 24.1507 7.01515 24.1692 6.84231 24.1692C6.46207 24.1692 6.15835 24.0831 6.14575 24.0788L5.1402 23.8033L5.59061 22.8221C5.59376 22.8155 5.83464 22.2122 5.55502 21.3476C5.48376 21.1276 5.42304 20.9055 5.37485 20.6833C5.18634 20.7246 4.99043 20.7453 4.7872 20.7464C3.84873 20.7464 3.18989 20.178 2.90917 19.6923L2.41167 18.7917L3.32398 18.4007C3.95661 18.1274 4.24465 17.4936 4.37457 16.9273C3.18044 16.8162 2.55726 15.7839 2.3708 15.1609L2 13.9522L3.22548 13.9935C3.31454 13.9924 4.05299 13.9706 4.76735 13.4305C4.75489 13.4317 4.74249 13.4331 4.73012 13.4345L4.73007 13.4345H4.73006H4.73004H4.73002H4.73001H4.72999H4.72998H4.72996H4.72995L4.72993 13.4345L4.72989 13.4345H4.72987L4.72986 13.4345L4.72981 13.4345H4.7298L4.72978 13.4345L4.72968 13.4345C4.68805 13.4391 4.64663 13.4436 4.60396 13.4436C3.86756 13.4436 3.15327 12.983 2.86728 12.3219L2.353 11.1294C3.11343 11.1436 3.6047 11.0521 3.6047 11.0521C3.60454 11.0521 3.60507 11.052 3.60627 11.0518C3.63632 11.0465 4.08628 10.9659 4.60396 10.4162C4.99255 10.0045 5.47226 9.78672 5.9918 9.78672C6.21906 9.78672 6.42229 9.82919 6.59616 9.88692C6.56892 9.78994 6.5438 9.69197 6.52805 9.59178C6.37725 8.58555 6.9313 7.78508 7.04342 7.63375L7.96197 6.46194L8.52341 7.83736C8.52341 7.83736 8.6638 8.15319 8.91515 8.30781C8.99264 7.90597 9.1802 7.45298 9.58235 7.0217C10.3365 6.20819 11.2572 6.08623 11.739 6.08623C11.9632 6.08623 12.1213 6.11129 12.1737 6.12003L12.2094 6.12655L13.2505 6.33997C13.1887 6.08623 13.0546 5.64628 12.8095 5.2488L12.2062 4.27308L13.7208 4.45277L14.2026 3.38659L15.14 3.88756L16.0021 3L16.8662 3.88756L17.8005 3.38659L18.2834 4.45277L19.799 4.27308L19.1967 5.2488C18.9517 5.64628 18.8176 6.08737 18.7547 6.34104L19.8461 6.11781C19.8849 6.11129 20.0442 6.08623 20.2672 6.08623C20.7491 6.08623 21.6697 6.20712 22.426 7.0217C22.8272 7.45406 23.0147 7.90597 23.0911 8.30781C23.3381 8.15502 23.4786 7.84725 23.4876 7.82743L23.4881 7.82647L24.0485 6.45871L24.9524 7.62286C24.9524 7.62171 25.6437 8.47332 25.4782 9.58956C25.4635 9.69083 25.4374 9.78887 25.4101 9.88577C25.585 9.82805 25.7883 9.78558 26.0155 9.78558C26.5351 9.78558 27.0148 10.0034 27.4023 10.415C27.9294 10.9747 28.3867 11.0476 28.414 11.0519L28.4152 11.0521C28.4152 11.0521 29.0081 11.1371 29.6564 11.1283L29.139 12.3208C28.853 12.9807 28.1398 13.4425 27.4023 13.4425C27.3597 13.4425 27.3178 13.4378 27.276 13.4332L27.2759 13.4332C27.2643 13.4319 27.2527 13.4306 27.2411 13.4294C27.9575 13.9696 28.6959 13.9913 28.7975 13.9913L30 13.9522ZM13.3175 6.76037L13.3301 6.75707L13.328 6.74619L13.3175 6.76037Z" fill="white"/>
<path fill-rule="evenodd" clip-rule="evenodd" d="M18.3116 18.7185H11.8499V14.8384C11.8499 14.4627 11.7442 14.0847 11.6195 13.7363H14.5314C14.8079 14.0217 15.0792 14.2002 15.3369 14.2982C15.3044 14.4365 15.2604 14.7208 15.384 15.005C15.4856 15.2348 15.6689 15.4112 15.935 15.5288C15.9643 15.812 16.1371 16.2388 16.6126 16.4262C16.4042 16.645 16.201 16.8519 16.1193 16.9347L14.1857 16.9031C14.1418 16.8814 14.0674 16.8291 14.0339 16.7572C14.0316 16.7514 14.0288 16.7471 14.026 16.7429C14.0236 16.7392 14.0211 16.7356 14.0192 16.731L14.3345 16.7845C14.3408 16.7855 14.3481 16.7855 14.3544 16.7855C14.4162 16.7855 14.4685 16.7408 14.479 16.6766C14.4895 16.6036 14.4423 16.5372 14.3743 16.5263L13.9867 16.4632L14.4172 14.9168L14.0098 14.0249L13.3561 14.7436L13.3164 16.351L12.8775 16.2791C12.8094 16.2649 12.7445 16.3161 12.733 16.3881C12.7225 16.4588 12.7686 16.5253 12.8377 16.5383L13.022 16.5677C12.9571 16.6069 12.9131 16.6374 12.9079 16.6418L12.8712 16.669L12.8608 16.7169C12.7539 17.1678 12.9948 17.5957 13.2567 17.7874L13.2472 17.844C13.2357 17.9137 13.2514 17.9813 13.2913 18.0378C13.33 18.0956 13.3876 18.1304 13.4536 18.1424C13.4672 18.1457 13.4819 18.1468 13.4944 18.1468C13.6076 18.1468 13.706 18.0651 13.7332 17.9464C13.8307 17.9583 13.9197 17.9606 13.9804 17.9606H14.0318L16.5676 18.4375L16.6105 18.407C16.8116 18.2611 17.5825 17.6774 17.835 17.4836C17.9041 17.5445 17.9816 17.6012 18.0759 17.648C17.9932 17.9333 17.989 18.3722 18.3116 18.7185ZM11.85 18.9799H20.1593L20.1583 22.2306C20.1583 23.3065 19.5497 24.059 18.5913 24.304L18.7516 23.435C18.761 23.3839 18.7705 23.3239 18.7778 23.2739C18.8238 23.2934 18.871 23.3098 18.9234 23.3196C18.9831 23.3316 19.0386 23.337 19.0888 23.337C19.3339 23.337 19.4764 23.2031 19.5717 23.0887L19.6953 22.9396L19.5947 22.7762C19.594 22.7751 19.5921 22.772 19.5892 22.7671C19.5523 22.7068 19.3495 22.3753 19.1915 22.1435C19.158 22.0945 19.1255 22.0443 19.0931 21.9921L19.0912 21.9892C18.8966 21.6869 18.6536 21.3093 18.166 21.3093L18.1221 21.3104C18.0425 21.3158 17.9733 21.3322 17.9168 21.3539C17.7638 21.2799 17.6047 21.2407 17.4402 21.2407C17.238 21.2407 17.0673 21.2984 16.9542 21.3387C16.9439 21.3418 16.9339 21.345 16.9244 21.3481C16.9038 21.3547 16.8851 21.3608 16.8694 21.3638L15.9559 21.2701C15.9444 21.2679 15.9067 21.245 15.8617 21.1895V21.1841L16.0596 21.1013C16.0041 20.4163 15.3725 19.9949 15.0196 19.8522C15.0038 19.7836 14.9724 19.715 14.9169 19.6595L14.721 19.4656L14.5482 19.6802L14.4634 19.7901L13.1834 19.2434L14.0161 20.3303L13.6873 20.8475C13.5668 20.9804 13.6998 21.1133 13.6998 21.1133L14.0392 21.3572L14.3911 21.2211C14.398 21.2211 14.4049 21.2223 14.4118 21.2235C14.4164 21.2242 14.421 21.225 14.4256 21.2255C14.4157 21.2566 14.4044 21.3386 14.3938 21.4155C14.3855 21.4758 14.3777 21.533 14.3712 21.5598L13.7606 21.4345L13.1185 21.8113C12.7886 22.0629 12.7435 22.48 12.866 22.7653L12.9372 22.9275L13.0389 23.1563L13.2641 23.0593C13.2672 23.0593 13.2703 23.0582 13.2724 23.0561C13.1918 23.3239 13.2253 23.5799 13.3688 23.7465L13.505 23.924L13.6862 24.1625L13.8852 23.9404C13.9428 23.8793 14.1334 23.6583 14.1921 23.4688L14.235 23.3239L14.1376 23.2129L14.1209 23.1933L14.2298 23.006L15.0269 23.2009L15.206 23.2434L15.3013 23.08L15.3537 22.9907C15.3632 22.9722 15.3662 22.9689 15.4029 22.9689C15.4312 22.9689 15.4595 22.9712 15.4899 22.9787C15.7905 23.0375 16.0681 23.067 16.3142 23.067C16.5541 23.067 16.6965 23.0572 16.8662 22.9984C16.8662 22.9984 17.2946 23.5047 17.3092 23.5233L17.0474 24.3651L17.0359 24.4151C16.5394 24.4576 16.2974 24.5709 16.0052 24.8736C15.581 24.4358 15.2804 24.3901 14.1397 24.3901C12.7749 24.3901 11.85 23.5581 11.85 22.2295V18.9799Z" fill="#FFDD2D"/>
<path fill-rule="evenodd" clip-rule="evenodd" d="M18.1896 6.45799C17.7591 6.09968 16.9798 5.76423 16.0057 5.76423C15.0327 5.76423 14.2555 6.09968 13.8239 6.45799C13.8239 6.45799 13.6961 5.65751 13.2593 4.95079L14.0439 5.04332L14.4534 4.13621L15.2431 4.55875L16.0057 3.77246L16.7703 4.55875L17.5591 4.13621L17.9696 5.04332L18.7541 4.95079C18.3174 5.65751 18.1896 6.45799 18.1896 6.45799ZM14.2261 5.3853L14.0082 5.3613L13.7998 5.33516C13.8951 5.55732 13.9643 5.76967 14.0155 5.94506C14.5665 5.62708 15.2798 5.44624 16.0047 5.44624C16.7326 5.44624 17.4469 5.62708 17.9958 5.94506C18.0461 5.76967 18.1162 5.55847 18.2116 5.33516L18.0042 5.3613L17.7863 5.3853L17.6942 5.17947L17.4166 4.56964L16.9107 4.84293L16.7137 4.9475L16.5567 4.78635L16.0067 4.22007L15.4579 4.78635L15.3008 4.9475L15.1038 4.84293L14.5948 4.56964L14.3203 5.17947L14.2261 5.3853ZM14.5132 20.3885C14.4661 20.3841 14.4263 20.4222 14.4232 20.4701C14.42 20.5202 14.4557 20.5627 14.5038 20.5637C14.5499 20.5681 14.5907 20.5311 14.5949 20.4821C14.5949 20.4342 14.5614 20.3896 14.5132 20.3885ZM20.1492 26.281L19.6705 26.0905L19.8025 25.5765L19.9481 25.0156C19.9481 25.0156 19.0996 25.4937 17.9046 25.853C17.5652 25.9544 17.3086 26.0001 17.3086 26.0001V26.3812C17.3086 26.3812 16.6696 26.4967 16.0234 26.4967H16.0161H16.0066H15.994H15.9867C15.3404 26.4967 14.7015 26.3812 14.7015 26.3812V26.0001C14.7015 26.0001 14.4438 25.9544 14.1055 25.853C12.9104 25.4937 12.063 25.0156 12.063 25.0156L12.2065 25.5765L12.3417 26.0905L11.8619 26.281L11.3298 26.4879C11.3931 26.5197 11.4589 26.5529 11.5269 26.5872C12.1149 26.8841 12.866 27.2633 13.5598 27.4604L13.3775 27.9788C13.3775 27.9788 14.359 28.4438 15.994 28.4482V28.4493H15.9993H16.0066H16.0129H16.0171V28.4482C17.6542 28.4438 18.6346 27.9788 18.6346 27.9788L18.4513 27.4604C19.1548 27.2605 19.919 26.8734 20.5086 26.5748L20.5086 26.5747L20.5092 26.5744C20.568 26.5446 20.6251 26.5157 20.6803 26.4879L20.1492 26.281ZM11.8976 26.5228L12.6852 26.2506L12.4527 25.461C12.7993 25.6658 13.5776 25.9729 14.028 26.1155L13.6478 27.2013C12.9523 27.002 12.3731 26.77 11.8976 26.5228ZM16.0066 28.1759C15.0922 28.1759 14.0479 27.957 13.741 27.8438L14.2082 26.5293C14.5957 26.6469 15.4023 26.7722 15.9877 26.7678H15.9888H16.0066H16.0223H16.0244C16.6099 26.7722 17.4144 26.6469 17.804 26.5293L18.2701 27.8438C17.9632 27.9581 16.92 28.1759 16.0066 28.1759ZM18.3633 27.2013L17.9842 26.1155C18.4356 25.9729 19.2118 25.6658 19.5595 25.461L19.328 26.2506L20.1146 26.5228C19.638 26.77 19.0619 27.002 18.3633 27.2013ZM27.4341 16.3852C28.6942 16.3852 29.1153 15.0524 29.1331 14.9957L29.2735 14.5263L28.801 14.5416H28.799C28.6324 14.5416 27.2424 14.5035 26.2568 13.201L26.1636 13.0801L26.1604 13.0759C25.5174 12.2259 24.907 11.4188 23.8173 11.0502C23.8488 11.0208 23.8938 10.9838 23.9556 10.9424C24.5349 10.546 24.8721 10.0647 24.957 9.50606C25.0805 8.66534 24.5652 7.99557 24.5422 7.96835L24.1913 7.51752L23.9724 8.05222L23.9722 8.0526C23.9552 8.09192 23.5863 8.94193 22.8139 8.94193H22.7563C22.7401 8.94093 22.7242 8.94003 22.7085 8.93915L22.7083 8.93914C22.6723 8.93712 22.6373 8.93515 22.6023 8.93211C22.6296 8.54989 22.5625 7.95854 22.0472 7.40422C21.4282 6.73667 20.6677 6.63648 20.2697 6.63648C20.0743 6.63648 19.9391 6.65946 19.907 6.66491L19.9069 6.66493L19.9043 6.66537C19.9029 6.66561 19.9017 6.66579 19.901 6.66591L19.371 6.77477L19.6978 7.22238C19.9544 7.56758 20.187 8.20469 19.9114 8.53793C19.8281 8.63805 19.661 8.72054 19.4957 8.80212L19.4684 8.81559C19.1113 8.98654 18.6242 9.22396 18.6242 9.82949C18.6242 10.2215 18.9164 10.631 19.4464 10.9795C21.0155 12.0053 21.9833 13.0758 22.4012 14.2573C23.0475 16.0749 22.2043 17.1117 21.3852 17.6572L21.0176 17.9033L21.3391 18.2104L21.3392 18.2105C21.3825 18.2501 21.7763 18.6102 22.3572 18.6624C22.4672 18.67 22.573 18.6765 22.6715 18.6765C23.0443 18.6765 23.3617 18.6156 23.6194 18.5338C23.5482 18.6635 23.4612 18.7953 23.3513 18.9281C22.8831 19.4922 22.307 19.7492 21.4784 19.7623L21.1705 19.7678L21.1464 20.089C21.1432 20.1532 21.1202 20.7489 21.6628 21.2553C21.7455 21.3337 21.8461 21.398 21.9508 21.4513C21.5832 21.7955 21.2092 22.3944 21.137 23.4213C21.0762 24.2784 20.8793 24.5953 20.8772 24.5985L20.5368 25.1387L21.1516 25.1474C22.1677 25.1474 22.9459 24.8556 23.4853 24.2784C23.8037 23.9364 23.986 23.5509 24.0939 23.209C24.2709 23.3658 24.4993 23.503 24.7967 23.576C24.9098 23.6032 25.0335 23.6184 25.1665 23.6184C25.4385 23.6184 25.6682 23.5617 25.7146 23.5502C25.7171 23.5496 25.7191 23.5491 25.7206 23.5487L26.1133 23.4398L25.9395 23.0587L25.9389 23.0574C25.9198 23.0114 25.6029 22.2517 25.952 21.1725C26.1039 20.701 26.1814 20.2785 26.2191 19.9496C26.4663 20.0835 26.7973 20.1946 27.2257 20.1957C28.1704 20.1957 28.6016 19.4829 28.6434 19.4138C28.6446 19.4118 28.6455 19.4103 28.646 19.4095L28.8377 19.0631L28.4826 18.9107C27.3242 18.4108 27.0676 17.068 27.0162 16.3406C27.1209 16.3613 27.2404 16.3809 27.3755 16.3852H27.4341ZM28.3527 19.2319C28.3527 19.2319 28.0133 19.845 27.2351 19.845H27.2257C26.2914 19.8396 25.9143 19.2472 25.9143 19.2472C25.9143 19.2472 25.9688 20.0182 25.6315 21.0582C25.2261 22.3116 25.6347 23.2079 25.6347 23.2079C25.6347 23.2079 25.4168 23.2689 25.1654 23.2689C25.069 23.2689 24.9685 23.2591 24.8742 23.2329C24.0939 23.0402 23.8991 22.3018 23.8991 22.3018C23.8991 22.3018 23.9713 24.7968 21.1736 24.7968H21.1516C21.1516 24.7968 21.3978 24.4483 21.4711 23.4453C21.6041 21.594 22.8097 21.3403 22.8097 21.3403C22.8097 21.3403 22.1666 21.2564 21.888 20.9961C21.4522 20.5856 21.4826 20.1107 21.4826 20.1107C22.4672 20.0966 23.1114 19.7481 23.6026 19.1568C24.1348 18.5164 24.2227 17.8271 24.2227 17.8271C24.2227 17.8271 23.6937 18.3259 22.6704 18.3259C22.5804 18.3259 22.484 18.3215 22.3855 18.3117C21.9016 18.2714 21.5664 17.9512 21.5664 17.9512C22.6316 17.2412 23.3795 16.0019 22.7165 14.1354C22.1855 12.6402 20.9097 11.5229 19.6255 10.6811C19.1982 10.4034 18.9604 10.0952 18.9604 9.82949C18.9604 9.44658 19.2811 9.29087 19.6103 9.13106C19.8185 9.02998 20.0301 8.92726 20.166 8.76439C20.5703 8.27652 20.3168 7.48486 19.9659 7.00896C19.9659 7.00896 20.0843 6.98389 20.2707 6.98389C20.6405 6.98389 21.2805 7.08079 21.8062 7.64708C22.5049 8.39849 22.2148 9.21637 22.2148 9.21637L22.4023 9.25447C22.5098 9.27851 22.6163 9.28351 22.7265 9.28868L22.7406 9.28934C22.7532 9.28934 22.7657 9.28961 22.7783 9.28988C22.7909 9.29015 22.8034 9.29042 22.816 9.29042C23.831 9.29042 24.2845 8.18722 24.2845 8.18722C24.2845 8.18722 25.3634 9.56701 23.7755 10.6473C23.5021 10.8324 23.3817 11.0034 23.4131 11.1864L23.4382 11.3062L23.5513 11.3269C24.6521 11.6372 25.2328 12.4057 25.9035 13.2932C25.9341 13.3338 25.9649 13.3745 25.996 13.4155C27.0759 14.8432 28.6041 14.889 28.7927 14.889H28.8126C28.8126 14.889 28.4638 16.0335 27.4362 16.0335C27.4195 16.0335 27.4048 16.0335 27.387 16.0325C26.9146 16.015 26.6727 15.8266 26.6727 15.8266C26.6727 15.8266 26.4873 18.4261 28.3527 19.2319ZM26.2046 12.112C25.9648 11.8028 25.6914 11.4543 25.2211 11.194L24.7372 10.9229L25.1855 10.5951C25.1873 10.5939 25.1898 10.5923 25.193 10.5902C25.2562 10.5487 25.5836 10.3337 26.0182 10.3337C26.3921 10.3337 26.7388 10.4938 27.0258 10.7976C27.7234 11.5392 28.3498 11.598 28.3728 11.5991L28.8599 11.6296L28.6587 12.0935C28.4587 12.5563 27.9308 12.8907 27.405 12.8907C27.2709 12.8907 27.1389 12.87 27.0143 12.8253C26.6685 12.7058 26.4455 12.4203 26.2127 12.1224L26.2046 12.112ZM26.786 11.0448C26.5272 10.7671 26.2539 10.6844 26.0193 10.6844C25.6548 10.6844 25.3803 10.8847 25.3803 10.8847C25.9104 11.1777 26.2125 11.5665 26.4663 11.8932C26.6824 12.1712 26.8634 12.4042 27.1201 12.4943C27.2154 12.528 27.3107 12.5433 27.406 12.5433C27.8177 12.5433 28.2157 12.2656 28.3529 11.9498C28.3529 11.9498 27.5978 11.9019 26.786 11.0448ZM25.4409 15.8213V15.8387C25.1581 13.4668 23.5011 11.7539 21.6576 10.7117C21.4869 10.6169 21.3298 10.5364 21.1769 10.459C21.7383 10.5494 22.6422 10.5603 23.3398 9.93083C23.3398 9.93083 22.2724 10.7476 20.0854 10.006C20.2609 10.1244 20.4844 10.2569 20.7394 10.408L20.7394 10.408C21.3642 10.7784 22.1784 11.261 22.9407 11.9237C25.6253 14.3761 23.7043 16.7687 23.7043 16.7687C24.669 15.7222 24.7088 14.6005 24.425 13.6847C24.9329 14.5635 25.2577 15.6307 25.2074 16.9462C25.133 18.8313 24.1369 20.4615 23.0885 21.7716C22.5846 22.4076 22.4715 23.1884 22.4715 23.1884C22.4715 23.1884 22.6747 22.499 23.2581 21.7901C24.382 20.4223 25.3425 19.0012 25.4682 16.9538C25.5845 17.3252 26.0631 18.3587 26.8225 18.7474L26.8223 18.7472C26.8034 18.7349 25.8656 18.1246 25.4409 15.8213ZM11.1328 24.5953C11.1335 24.5966 11.1339 24.5973 11.1339 24.5974L11.4754 25.1365L10.8595 25.1451C9.8435 25.1451 9.06631 24.8533 8.52589 24.2761C8.20848 23.9342 8.02517 23.5486 7.91831 23.2067C7.74342 23.3636 7.51301 23.5007 7.2145 23.5737C7.10347 23.6009 6.97985 23.6162 6.84575 23.6162C6.56838 23.6162 6.33237 23.5567 6.29463 23.5472L6.2917 23.5465L5.89784 23.4376L6.0717 23.0564L6.07228 23.055C6.09195 23.0079 6.40905 22.2486 6.0602 21.1703C5.90831 20.6987 5.83082 20.2762 5.79311 19.9473C5.54483 20.0813 5.21387 20.1923 4.78865 20.1935C3.82919 20.1935 3.39811 19.4613 3.36736 19.4091L3.36623 19.4072L3.1745 19.0609L3.52853 18.9084C4.6881 18.4075 4.94465 17.0647 4.99709 16.3384C4.89023 16.3601 4.77079 16.3787 4.63778 16.383L4.57707 16.3852C3.31592 16.3852 2.8959 15.0522 2.87913 14.9956L2.73463 14.5263L3.20907 14.5415C3.37561 14.5415 4.76873 14.5034 5.75334 13.2009L5.8465 13.08L5.85444 13.0695C6.49571 12.2218 7.1048 11.4167 8.19068 11.0491C8.15926 11.0197 8.11525 10.9826 8.05241 10.9412C7.47317 10.5448 7.13591 10.0635 7.05213 9.50487C6.92936 8.68462 7.42031 8.02547 7.46157 7.97007L7.46373 7.96716L7.81783 7.51633L8.03673 8.05103L8.03691 8.05145C8.05419 8.09133 8.42199 8.94074 9.19623 8.94074H9.25277C9.26794 8.9398 9.28293 8.93896 9.29781 8.93811L9.29813 8.93809L9.29831 8.93808C9.33461 8.93603 9.37017 8.93401 9.40569 8.93093C9.37954 8.54977 9.44758 7.9585 9.96398 7.4031C10.5841 6.73555 11.3424 6.63536 11.7404 6.63536C11.9323 6.63536 12.0642 6.6573 12.1005 6.66334C12.1046 6.66402 12.1075 6.6645 12.1091 6.66472L12.6412 6.77365L12.3123 7.22119C12.0567 7.56646 11.8232 8.20458 12.0997 8.53674C12.1831 8.63686 12.3502 8.71935 12.5155 8.80093L12.5427 8.8144C12.8999 8.98435 13.3859 9.22284 13.3859 9.8283C13.3859 10.2203 13.0958 10.6298 12.5658 10.9783C10.9947 12.0041 10.0278 13.0746 9.60995 14.2562C8.96473 16.0727 9.80476 17.1094 10.627 17.6561L10.9946 17.9022L10.6731 18.2093C10.6291 18.2496 10.2353 18.6089 9.65396 18.6612C9.54396 18.6688 9.44026 18.6754 9.3397 18.6754C8.96575 18.6754 8.65047 18.6144 8.39282 18.5327C8.46407 18.6623 8.55204 18.7941 8.66101 18.9269C9.12915 19.49 9.70633 19.7469 10.5327 19.7611L10.8428 19.7666L10.8637 20.0878C10.8669 20.1521 10.8899 20.7477 10.3484 21.2541C10.2656 21.3336 10.1672 21.3979 10.0604 21.4502C10.429 21.7943 10.802 22.3932 10.8753 23.4201C10.9355 24.241 11.1167 24.5664 11.1328 24.5953ZM8.11004 22.3018C8.11004 22.3018 8.03879 24.7966 10.8365 24.7966H10.8564C10.8564 24.7966 10.6123 24.4482 10.5401 23.4452C10.4081 21.5939 9.20143 21.3402 9.20143 21.3402C9.20143 21.3402 9.8446 21.2552 10.1242 20.996C10.56 20.5855 10.5286 20.1107 10.5286 20.1107C9.54396 20.0965 8.89977 19.748 8.40541 19.1567C7.87642 18.5164 7.78846 17.827 7.78846 17.827C7.78846 17.827 8.31745 18.3258 9.3397 18.3258C9.43191 18.3258 9.52719 18.3215 9.62569 18.3116C10.1106 18.2713 10.4458 17.9512 10.4458 17.9512C9.37845 17.24 8.63164 16.0019 9.29364 14.1353C9.82365 12.6401 11.0994 11.5228 12.3846 10.681C12.812 10.4033 13.0497 10.094 13.0497 9.82937C13.0497 9.44618 12.7289 9.29012 12.4 9.13013C12.1924 9.02914 11.9816 8.92658 11.8463 8.76434C11.4419 8.27648 11.6954 7.48582 12.0452 7.00885C12.0452 7.00885 11.9289 6.98385 11.7415 6.98385C11.3728 6.98385 10.7328 7.07968 10.207 7.64703C9.50727 8.39845 9.79744 9.21625 9.79744 9.21625L9.60995 9.25442C9.50912 9.27712 9.40653 9.28281 9.30307 9.28855H9.30304C9.29259 9.28913 9.28213 9.28971 9.27166 9.2903C9.25845 9.2903 9.24605 9.2906 9.23377 9.29089H9.23375H9.23373H9.23372H9.2337H9.23368H9.23366C9.22161 9.29117 9.20968 9.29145 9.19726 9.29145C8.18021 9.29145 7.72877 8.18932 7.72877 8.18932C7.72877 8.18932 6.64991 9.56804 8.23784 10.6494C8.51117 10.8345 8.63062 11.0055 8.5992 11.1885L8.57401 11.3083L8.4588 11.329C7.35813 11.6409 6.77647 12.4104 6.10432 13.2998C6.07479 13.3388 6.04509 13.3781 6.01516 13.4176C4.93527 14.8453 3.40915 14.8911 3.21954 14.8911H3.1986C3.1986 14.8911 3.54633 16.0356 4.57495 16.0356C4.59172 16.0356 4.60739 16.0356 4.62416 16.0346C5.09764 16.016 5.33955 15.8287 5.33955 15.8287C5.33955 15.8287 5.52286 18.4271 3.65845 19.2319C3.65845 19.2319 3.99783 19.845 4.77606 19.845H4.7855C5.72082 19.8395 6.09689 19.2471 6.09689 19.2471C6.09689 19.2471 6.04241 20.0181 6.37754 21.0581C6.78291 22.3116 6.37652 23.2078 6.37652 23.2078C6.37652 23.2078 6.59337 23.2688 6.84472 23.2688C6.94213 23.2688 7.04166 23.259 7.13489 23.2329C7.91523 23.0401 8.11004 22.3018 8.11004 22.3018ZM4.60537 12.8919C4.74049 12.8919 4.87247 12.8712 4.99712 12.8265C5.34361 12.7075 5.56521 12.4238 5.7969 12.1271L5.80779 12.1132L5.80848 12.1123L5.80848 12.1123C6.04926 11.8033 6.32046 11.4552 6.79027 11.1952L7.27422 10.9251L6.82484 10.5973L6.82063 10.5945C6.76674 10.5583 6.43617 10.336 5.99425 10.336C5.61927 10.336 5.27154 10.495 4.98555 10.7999C4.28796 11.5404 3.66266 11.6003 3.63959 11.6014L3.15256 11.6308L3.35264 12.0958C3.55376 12.5564 4.08056 12.8919 4.60537 12.8919ZM5.2254 11.046C5.48518 10.7683 5.75857 10.6856 5.99425 10.6856C6.35663 10.6856 6.63112 10.8859 6.63112 10.8859C6.10272 11.1788 5.80068 11.5665 5.54677 11.8925C5.32955 12.1714 5.14755 12.4051 4.88917 12.4955C4.79704 12.5292 4.70066 12.5445 4.60537 12.5445C4.1937 12.5445 3.79566 12.2679 3.65951 11.951C3.65951 11.9509 3.66049 11.9508 3.6624 11.9506C3.71378 11.9454 4.44281 11.8712 5.2254 11.046ZM7.58522 13.6857C7.07622 14.5645 6.75149 15.6318 6.80385 16.9473C6.87717 18.8324 7.87327 20.4637 8.91968 21.7716C9.42561 22.4076 9.53978 23.1884 9.53978 23.1884C9.53978 23.1884 9.3345 22.499 8.75102 21.7901C7.62712 20.4223 6.66668 19.0012 6.53991 16.9539C6.42368 17.3263 5.94602 18.3586 5.18765 18.7475C5.18765 18.7475 6.14083 18.1496 6.56927 15.8202V15.8387C6.85307 13.4669 8.50911 11.7538 10.3547 10.7117C10.5159 10.621 10.6686 10.5434 10.8144 10.4692L10.8344 10.4591C10.273 10.5505 9.369 10.5614 8.67141 9.93195C8.67141 9.93195 9.73877 10.7487 11.9248 10.0071C11.749 10.1259 11.5248 10.2589 11.2689 10.4107L11.2689 10.4107C10.6452 10.7808 9.83253 11.263 9.07048 11.9249C6.38486 14.3773 8.30588 16.7698 8.30588 16.7698C7.34017 15.7233 7.30143 14.6016 7.58522 13.6857ZM15.3741 12.148V12.6185C15.5301 12.4214 15.8318 12.4617 15.8318 12.4617V13.1402C15.8318 13.1402 15.8213 13.4734 15.7071 13.6182H16.0339H16.3597C16.2476 13.4745 16.2361 13.1402 16.2361 13.1402V12.4617C16.2361 12.4617 16.5377 12.4214 16.6928 12.6185V12.148H16.0339H15.3741ZM15.42 9.55921C15.3921 9.54954 15.2768 9.50949 15.0933 9.35799C14.7487 9.07918 14.7414 8.82329 14.7414 8.82222L15.5081 9.15761V9.60085L15.4264 9.56167C15.4259 9.56128 15.4237 9.56053 15.42 9.55921ZM16.917 9.35799C17.2637 9.07918 17.27 8.82222 17.27 8.82222L16.5032 9.15761V9.60085L16.5839 9.56167C16.5844 9.56132 16.5864 9.56066 16.5896 9.55956C16.6161 9.55054 16.7312 9.5114 16.917 9.35799ZM16.0087 6.2772C17.2102 6.2772 18.2984 6.88158 18.2984 7.5535L18.2754 7.71901L17.7957 10.582L18.2754 10.8728L19.5219 11.6296H19.5177C19.5177 11.6296 19.7983 11.7788 19.9261 11.8714C20.4038 12.2145 20.5033 12.7143 20.2278 12.9212C20.1587 12.5128 19.8497 12.0871 19.2694 12.0871C18.8515 12.0871 18.5341 12.3103 18.2743 12.6479C18.2094 12.7328 18.1476 12.8232 18.0879 12.9212C18.0157 13.0442 17.9434 13.1532 17.8721 13.2566H21.0836C20.8469 13.7499 20.6227 14.2727 20.6227 14.84V22.2279C20.6227 24.016 19.3019 24.8698 17.8701 24.8698C17.7851 24.8698 17.7059 24.8695 17.6316 24.8692C16.7374 24.8656 16.5676 24.8649 16.0067 25.4491C15.4421 24.8651 15.2723 24.8658 14.3757 24.8692C14.3026 24.8695 14.2246 24.8698 14.1412 24.8698C12.7104 24.8698 11.3875 24.016 11.3875 22.2279V14.84C11.3875 14.2727 11.1633 13.7499 10.9277 13.2566H14.138C14.0657 13.1521 13.9935 13.0442 13.9212 12.9212C13.8626 12.8232 13.7997 12.7328 13.7338 12.6479C13.476 12.3114 13.1577 12.0871 12.7397 12.0871C12.1594 12.0871 11.8494 12.5139 11.7813 12.9212C11.5059 12.7143 11.6064 12.2145 12.0809 11.8714C12.2108 11.7788 12.4915 11.6296 12.4915 11.6296H12.4873L13.7338 10.8728L14.2155 10.582L13.7358 7.71901L13.7117 7.5535C13.7117 6.88158 14.8 6.2772 16.0014 6.2772H16.0046H16.0077H16.0087ZM15.8705 8.48131L14.1841 7.88674L14.6293 10.5548L15.8705 11.2354V8.48131ZM15.3384 14.2988C15.0807 14.2008 14.8095 14.0232 14.5329 13.7368V13.7391H11.6211C11.7457 14.0876 11.8515 14.4654 11.8515 14.8411V18.7191H18.3142C17.9905 18.3727 17.9957 17.9339 18.0774 17.6485C17.9831 17.6018 17.9057 17.5451 17.8365 17.483C17.5841 17.6758 16.8142 18.2595 16.6121 18.4065L16.5691 18.4359L14.0333 17.96H13.982C13.9212 17.96 13.8322 17.9579 13.7348 17.9459C13.7065 18.0646 13.608 18.1462 13.4949 18.1462C13.4823 18.1462 13.4677 18.1451 13.4541 18.143C13.3891 18.131 13.3304 18.0962 13.2928 18.0384C13.253 17.9818 13.2383 17.9143 13.2488 17.8446L13.2582 17.788C12.9974 17.5963 12.7554 17.1683 12.8622 16.7174L12.8728 16.6695L12.9104 16.6423C12.9157 16.6379 12.9586 16.6075 13.0246 16.5683L12.8403 16.5389C12.7711 16.5258 12.7251 16.4594 12.7355 16.3886C12.747 16.3178 12.812 16.2655 12.8801 16.2797L13.3189 16.3515L13.3588 14.7442L14.0124 14.0255L14.4198 14.9173L13.9893 16.4626L14.3769 16.5258C14.445 16.5367 14.4921 16.6031 14.4816 16.6761C14.4711 16.7414 14.4177 16.785 14.3569 16.785C14.3506 16.785 14.3444 16.785 14.337 16.7839L14.0218 16.7305C14.0236 16.7368 14.0265 16.7413 14.0294 16.7459C14.0315 16.7492 14.0336 16.7525 14.0354 16.7567C14.0689 16.8297 14.1433 16.8808 14.1872 16.9037L16.1198 16.9353L16.1234 16.9316C16.2084 16.8455 16.4088 16.6424 16.6142 16.4267C16.1376 16.2383 15.9658 15.8125 15.9364 15.5294C15.6715 15.4118 15.4871 15.2353 15.3856 15.0066C15.2609 14.7224 15.3049 14.4371 15.3384 14.2988ZM16.5115 18.156C16.7503 17.9818 17.4102 17.4809 17.6668 17.2849C17.4804 17.0017 17.4626 16.6663 17.5045 16.431C17.383 16.3494 17.2897 16.2568 17.2154 16.1599C16.9398 16.4723 16.4312 16.9873 16.2933 17.127C16.2745 17.146 16.2626 17.1581 16.2591 17.1618L16.2224 17.201L14.2857 17.1683C14.2836 17.3676 14.2532 17.5375 14.2229 17.6616C14.2201 17.6733 14.2173 17.6846 14.2145 17.696C14.2121 17.7059 14.2096 17.7158 14.2072 17.7259L16.5115 18.156ZM14.0302 17.1128C13.962 17.0681 13.8636 16.9887 13.8091 16.8699C13.7463 16.7327 13.6573 16.6684 13.5263 16.6695C13.3567 16.6695 13.1755 16.7752 13.0969 16.8253C13.034 17.2054 13.3043 17.5506 13.4855 17.6202C13.6489 17.6823 13.849 17.6954 13.9505 17.6954C13.9547 17.6823 13.96 17.666 13.9652 17.6464C13.9746 17.6148 13.983 17.5832 13.9893 17.5495C14.0176 17.397 14.028 17.2238 14.0302 17.1128ZM13.608 14.8487L13.5693 16.3919L13.7379 16.418L14.1506 14.9369L13.9411 14.4817L13.608 14.8487ZM17.2992 24.3982C17.4039 24.3939 17.5202 24.3917 17.6459 24.3917C17.6459 24.3917 17.9465 23.478 17.9643 23.4497C17.7957 23.3724 17.4458 23.1797 17.3107 23.0914C17.3396 23.1364 17.3821 23.1835 17.4248 23.2307C17.5133 23.3288 17.6026 23.4277 17.5736 23.5107L17.2992 24.3982ZM18.3278 24.3547L18.5069 23.3833C18.5268 23.2766 18.5456 23.135 18.5456 23.1328C18.5355 23.1221 18.5232 23.1097 18.5094 23.0956C18.4289 23.0138 18.2951 22.8778 18.2146 22.7179C18.1485 22.5849 18.136 22.4852 18.1219 22.3727C18.1093 22.2714 18.0953 22.1599 18.0398 22.0046C18.0398 22.0046 18.0764 21.9284 18.1591 21.9284C18.1717 21.9284 18.1864 21.9294 18.2 21.9338C18.309 21.9662 18.3834 22.1583 18.4674 22.3754C18.5812 22.6695 18.7128 23.0092 18.9719 23.0588C19.0159 23.0674 19.0568 23.0707 19.0924 23.0707C19.2222 23.0707 19.2998 23.0141 19.3836 22.9107C19.3836 22.9107 19.1574 22.5404 18.9877 22.291C18.952 22.2391 18.9176 22.1855 18.8833 22.132C18.7012 21.8482 18.522 21.569 18.1686 21.569C18.1581 21.569 18.1465 21.569 18.1361 21.57C17.9979 21.5777 17.913 21.6474 17.913 21.6474C17.7433 21.5363 17.5841 21.4982 17.4416 21.4982C17.2806 21.4982 17.1414 21.5456 17.0342 21.5821C16.967 21.6049 16.9124 21.6235 16.8729 21.6235H16.8687L15.9323 21.5276C15.7857 21.5135 15.6704 21.3599 15.6286 21.3C15.6181 21.2836 15.6128 21.2738 15.6128 21.2738C15.6128 21.2478 15.6128 21.2205 15.6108 21.1966C15.5793 20.4016 14.9865 20.0607 14.7749 20.0553C14.7749 20.0553 14.799 19.9039 14.7424 19.8462L14.5361 20.1065L13.8584 19.7525L14.3423 20.3395L13.9327 20.8165C13.8804 20.8709 13.8877 20.9439 13.9086 20.9755L14.0857 21.1378L14.3098 20.9962C14.3213 20.9874 14.3423 20.9853 14.3664 20.9853C14.3949 20.9853 14.4302 20.9888 14.4682 20.9925C14.5123 20.9969 14.5601 21.0016 14.6052 21.0016C14.6973 21.0016 14.7759 20.982 14.7854 20.8927C14.7769 20.9816 14.747 21.0903 14.7142 21.2098C14.6382 21.4869 14.5463 21.8222 14.667 22.1037L14.7958 22.4086L13.9683 22.2844L13.5808 22.9651C13.4604 23.1916 13.4415 23.4355 13.5567 23.5695L13.7023 23.7579C13.7023 23.7579 13.9055 23.5347 13.9505 23.3866L13.8846 23.3114C13.829 23.2483 13.8312 23.1905 13.8657 23.123L14.1087 22.7048L15.0859 22.9444L15.1383 22.8529C15.2043 22.7375 15.2996 22.7038 15.4044 22.7038C15.4473 22.7038 15.4913 22.7092 15.5374 22.7168C15.7186 22.7538 16.0172 22.804 16.3157 22.804C16.6425 22.804 16.9682 22.744 17.1411 22.5415C17.3224 22.821 17.5992 22.9799 17.8184 23.1057C18.0271 23.2255 18.1836 23.3154 18.156 23.4508L17.9675 24.3851C18.0921 24.3797 18.2136 24.371 18.3278 24.3547ZM13.5211 22.5764L13.4782 22.4641C13.4467 22.3912 13.4509 22.3117 13.5096 22.2693L13.8594 22.0177L14.4439 22.1342C14.4439 22.1342 14.3381 21.997 14.3486 21.8129L13.7913 21.6899L13.2655 22.0231C13.0393 22.1984 13.0236 22.4848 13.0979 22.6547L13.1681 22.8137C13.1681 22.8137 13.4928 22.6743 13.5211 22.5764ZM18.7551 23.4323L18.5949 24.3013C19.5533 24.0563 20.1618 23.3048 20.1608 22.2268L20.1587 18.9783H11.8505V22.2268C11.8505 23.5554 12.7753 24.3874 14.1402 24.3874C15.2808 24.3874 15.5814 24.433 16.0056 24.8708C16.2979 24.567 16.5398 24.4537 17.0363 24.4124L17.0478 24.3612L17.3097 23.5205C17.295 23.5009 16.8666 22.9956 16.8666 22.9956C16.6958 23.0544 16.5534 23.0642 16.3146 23.0642C16.0684 23.0642 15.7909 23.0348 15.4903 22.976C15.4599 22.9695 15.4316 22.9662 15.4034 22.9662C15.3667 22.9662 15.3635 22.9695 15.3541 22.9879L15.3018 23.0772L15.2064 23.2406L15.0273 23.1981L14.2302 23.0032L14.1213 23.1905L14.137 23.2101L14.2344 23.3212L14.1915 23.4661C14.1328 23.6555 13.9432 23.8766 13.8846 23.9376L13.6856 24.1597L13.5044 23.9213L13.3682 23.7426C13.2237 23.5749 13.1911 23.3201 13.2718 23.0522C13.2697 23.0544 13.2666 23.0555 13.2634 23.0565L13.0392 23.1535L12.9377 22.9248L12.8665 22.7626C12.7439 22.4772 12.7889 22.0601 13.1189 21.8085L13.7609 21.4318L14.3716 21.557C14.3783 21.5293 14.3865 21.4691 14.395 21.4065C14.4052 21.3315 14.4159 21.253 14.425 21.2227C14.4135 21.2216 14.4031 21.2183 14.3905 21.2183L14.0385 21.3545L13.6992 21.1116C13.6992 21.1116 13.5661 20.9788 13.6866 20.8459L14.0155 20.3286L13.1828 19.2417L14.4628 19.7885L14.5476 19.6785L14.7204 19.4628L14.9173 19.6567C14.9729 19.7122 15.0043 19.7808 15.02 19.8494C15.373 19.9921 16.0056 20.4136 16.0611 21.0985L15.8631 21.1813V21.1857C15.9082 21.2423 15.9459 21.2652 15.9574 21.2673L16.8718 21.361C16.8876 21.358 16.9063 21.352 16.9268 21.3453C16.9364 21.3423 16.9464 21.339 16.9566 21.3359C17.0698 21.2957 17.2405 21.238 17.4427 21.238C17.6071 21.238 17.7653 21.2761 17.9193 21.3512C17.9748 21.3294 18.0439 21.3131 18.1246 21.3076L18.1686 21.3066C18.6573 21.3066 18.9013 21.6859 19.096 21.9885L19.0966 21.9894C19.1291 22.0427 19.1615 22.0917 19.1951 22.1407C19.3668 22.3912 19.5889 22.7571 19.5983 22.7734L19.6989 22.9368L19.5753 23.086C19.48 23.2003 19.3375 23.3343 19.0924 23.3343C19.0421 23.3343 18.9866 23.3288 18.9269 23.3168C18.8745 23.3071 18.8263 23.2907 18.7813 23.2711C18.7762 23.306 18.7695 23.3458 18.7631 23.384C18.7604 23.4005 18.7577 23.4168 18.7551 23.4323ZM20.1587 14.839C20.1587 14.4633 20.2645 14.0853 20.3912 13.7368V13.7358H17.4825C17.0363 14.1953 16.6079 14.3663 16.2256 14.4055C16.1565 14.4131 16.0863 14.4175 16.015 14.4175H16.0098H16.0056C15.9344 14.4175 15.8631 14.4131 15.794 14.4055C15.727 14.4001 15.6568 14.3881 15.5867 14.3717C15.5615 14.4752 15.529 14.6909 15.6201 14.8966C15.7008 15.0829 15.8653 15.2212 16.1051 15.3137L16.1857 15.3464L16.1868 15.4368C16.1868 15.4641 16.2057 16.051 16.8195 16.2132C16.919 16.1065 17.0101 16.0086 17.0781 15.9279C16.9525 15.6208 17.0185 15.3072 17.2007 15.1537C17.1934 15.1852 17.1127 15.9551 17.7056 16.2405L17.803 16.2884L17.7737 16.3973C17.7632 16.4289 17.5663 17.1738 18.2838 17.4504L18.4105 17.5004L18.3539 17.629C18.3403 17.6573 18.0596 18.3325 18.7226 18.7158H20.1598V17.5288C19.6486 17.4634 19.4318 17.0366 19.3763 16.7338C19.1385 16.6914 18.9552 16.5846 18.8284 16.4103C18.5595 16.0423 18.7368 15.7021 18.7807 15.618C18.786 15.6077 18.7894 15.6013 18.7897 15.5991C18.7886 15.6023 18.7897 16.0053 19.0285 16.2536C19.1469 16.3733 19.2872 16.467 19.4988 16.4877L19.6035 16.4975L19.613 16.6086C19.6151 16.6325 19.6727 17.1782 20.1598 17.2631L20.1587 14.839ZM18.7195 11.6296L18.1518 11.2866L17.5673 10.9392L16.0087 11.8213L16.0046 11.8181L16.0014 11.8213L14.4428 10.9392L13.8594 11.2866L13.2917 11.6296H13.2854L13.1409 11.7156C13.4624 11.8072 13.7065 11.9727 13.9128 12.1915C13.9171 12.1955 13.9207 12.1996 13.9242 12.2037C13.9285 12.2086 13.9328 12.2135 13.9379 12.2177C13.983 12.2689 14.028 12.3244 14.072 12.38C14.0825 12.393 14.092 12.405 14.1024 12.4202C14.1433 12.4758 14.1831 12.5346 14.2229 12.5945C14.2276 12.6012 14.2322 12.6085 14.237 12.6161C14.2409 12.6222 14.2449 12.6285 14.2491 12.6348C14.2962 12.7088 14.3402 12.785 14.3842 12.8635C14.7885 13.5877 15.4337 14.02 16.0067 14.0211C16.5806 14.02 17.2259 13.5877 17.6302 12.8635C17.6752 12.7829 17.7203 12.7045 17.7674 12.6315C17.7747 12.6218 17.782 12.6109 17.7883 12.5999C17.8282 12.5368 17.869 12.4769 17.913 12.4181C17.9183 12.4114 17.9232 12.4047 17.928 12.3982C17.9318 12.3931 17.9355 12.3881 17.9392 12.3833C17.9831 12.3255 18.0303 12.2689 18.0774 12.2166C18.08 12.2139 18.0826 12.2111 18.0852 12.2083C18.09 12.2031 18.0947 12.198 18.0994 12.1938C18.3047 11.9748 18.5499 11.8082 18.8703 11.7156L18.7279 11.6296H18.7195ZM16.1407 11.2365L17.383 10.5559L17.826 7.88674L16.1407 8.48131V11.2365ZM14.1579 7.41957L16.0056 8.17858L17.8533 7.41957C17.6972 7.03298 16.9724 6.70404 16.0056 6.70297C15.0399 6.70404 14.315 7.03298 14.1579 7.41957Z" fill="#333333"/>
</g>
<path d="M53.55 11.095C50.49 11.095 48.6 13.225 48.6 16.66C48.6 20.095 50.49 22.225 53.55 22.225C56.61 22.225 58.5 20.095 58.5 16.66C58.5 13.225 56.61 11.095 53.55 11.095ZM53.55 12.7C55.455 12.7 56.64 14.215 56.64 16.66C56.64 19.105 55.455 20.62 53.55 20.62C51.645 20.62 50.46 19.105 50.46 16.66C50.46 14.215 51.645 12.7 53.55 12.7ZM66.1057 11.32H64.3957V14.755C63.9457 14.38 63.4057 14.185 62.8357 14.185C60.9757 14.185 59.7907 15.76 59.7907 18.19C59.7907 20.62 60.9757 22.18 62.8657 22.18C63.4357 22.18 63.9457 21.985 64.3957 21.64V24.775H66.1057V21.64C66.5407 21.985 67.0657 22.18 67.6357 22.18C69.5107 22.18 70.6957 20.62 70.6957 18.19C70.6957 15.76 69.5107 14.185 67.6507 14.185C67.0657 14.185 66.5407 14.38 66.1057 14.755V11.32ZM63.3607 15.52C63.7657 15.52 64.1107 15.685 64.3957 15.985V20.41C64.1107 20.695 63.7657 20.86 63.3607 20.86C62.2657 20.86 61.5757 19.81 61.5757 18.19C61.5757 16.57 62.2657 15.52 63.3607 15.52ZM67.1257 15.52C68.2207 15.52 68.9257 16.57 68.9257 18.19C68.9257 19.81 68.2207 20.86 67.1257 20.86C66.7207 20.86 66.3757 20.695 66.1057 20.41V15.985C66.3757 15.685 66.7207 15.52 67.1257 15.52ZM75.7432 14.155C73.4332 14.155 71.9782 15.715 71.9782 18.19C71.9782 20.665 73.4332 22.225 75.7432 22.225C78.0532 22.225 79.4932 20.665 79.4932 18.19C79.4932 15.715 78.0532 14.155 75.7432 14.155ZM75.7432 15.505C76.9582 15.505 77.7082 16.54 77.7082 18.19C77.7082 19.84 76.9582 20.875 75.7432 20.875C74.5282 20.875 73.7782 19.84 73.7782 18.19C73.7782 16.54 74.5282 15.505 75.7432 15.505ZM85.1204 14.185C84.1604 14.185 83.3054 14.65 82.8554 15.43H82.8254V14.38H81.1604V24.775H82.8704V21.01H82.9004C83.3354 21.745 84.1904 22.18 85.1354 22.18C87.0704 22.18 88.3004 20.62 88.3004 18.19C88.3004 15.76 87.0554 14.185 85.1204 14.185ZM84.6254 15.52C85.7804 15.52 86.5154 16.57 86.5154 18.19C86.5154 19.81 85.7804 20.86 84.6254 20.86C83.5154 20.86 82.7804 19.84 82.7804 18.19C82.7804 16.525 83.5154 15.52 84.6254 15.52ZM99.7891 22V14.38H97.0591L95.8141 17.755C95.4691 18.7 95.1541 19.675 94.8841 20.62H94.8541C94.5841 19.675 94.2841 18.7 93.9391 17.755L92.6791 14.38H89.9641V22H91.5541V18.4C91.5541 17.47 91.5391 16.54 91.5091 15.61H91.5391C91.8391 16.54 92.1691 17.455 92.5141 18.385L93.8491 22H95.8891L97.2391 18.385C97.5841 17.455 97.9141 16.54 98.2141 15.61H98.2291C98.1991 16.54 98.1841 17.47 98.1841 18.4V22H99.7891ZM109.476 22V14.38H106.941L105.186 17.47C104.631 18.46 104.106 19.48 103.641 20.47H103.611C103.671 19.405 103.701 18.325 103.701 17.275V14.38H101.976V22H104.511L106.266 18.91C106.821 17.92 107.346 16.9 107.796 15.91H107.826C107.781 16.975 107.751 18.055 107.751 19.12V22H109.476ZM117.272 15.685V14.38H110.522V15.685H113.042V22H114.767V15.685H117.272ZM120.019 17.02V14.38H118.309V22H121.789C123.739 22 124.789 21.1 124.789 19.51C124.789 17.92 123.739 17.02 121.789 17.02H120.019ZM120.019 18.295H121.609C122.569 18.295 123.064 18.7 123.064 19.51C123.064 20.335 122.569 20.725 121.609 20.725H120.019V18.295ZM133.797 14.185C132.837 14.185 131.982 14.65 131.532 15.43H131.502V14.38H129.837V24.775H131.547V21.01H131.577C132.012 21.745 132.867 22.18 133.812 22.18C135.747 22.18 136.977 20.62 136.977 18.19C136.977 15.76 135.732 14.185 133.797 14.185ZM133.302 15.52C134.457 15.52 135.192 16.57 135.192 18.19C135.192 19.81 134.457 20.86 133.302 20.86C132.192 20.86 131.457 19.84 131.457 18.19C131.457 16.525 132.192 15.52 133.302 15.52ZM141.491 14.155C139.436 14.155 138.386 15.295 138.311 16.735H139.991C140.036 15.925 140.546 15.4 141.491 15.4C142.361 15.4 142.976 15.85 142.976 16.975V17.275C142.436 17.305 141.536 17.395 140.921 17.5C138.731 17.845 137.996 18.655 137.996 19.9C137.996 21.205 138.986 22.165 140.576 22.165C141.731 22.165 142.586 21.745 143.141 20.935H143.171C143.171 21.295 143.201 21.67 143.276 22H144.821C144.701 21.52 144.626 20.89 144.626 19.99V17.14C144.626 15.145 143.501 14.155 141.491 14.155ZM142.976 18.76C142.976 19.57 142.856 19.975 142.451 20.395C142.106 20.74 141.596 20.905 141.071 20.905C140.201 20.905 139.721 20.455 139.721 19.78C139.721 19.09 140.126 18.76 141.221 18.58C141.731 18.49 142.466 18.415 142.976 18.385V18.76ZM149.907 14.155C147.657 14.155 146.202 15.715 146.202 18.19C146.202 20.665 147.657 22.225 149.907 22.225C151.872 22.225 153.192 20.95 153.342 19.105H151.542C151.467 20.14 150.837 20.875 149.907 20.875C148.707 20.875 148.002 19.855 148.002 18.19C148.002 16.525 148.707 15.505 149.907 15.505C150.837 15.505 151.482 16.15 151.557 17.14H153.342C153.192 15.4 151.857 14.155 149.907 14.155ZM158.271 14.155C156.021 14.155 154.566 15.715 154.566 18.19C154.566 20.665 156.021 22.225 158.271 22.225C160.236 22.225 161.556 20.95 161.706 19.105H159.906C159.831 20.14 159.201 20.875 158.271 20.875C157.071 20.875 156.366 19.855 156.366 18.19C156.366 16.525 157.071 15.505 158.271 15.505C159.201 15.505 159.846 16.15 159.921 17.14H161.706C161.556 15.4 160.221 14.155 158.271 14.155ZM167.269 14.185C166.309 14.185 165.454 14.65 165.004 15.43H164.974V14.38H163.309V24.775H165.019V21.01H165.049C165.484 21.745 166.339 22.18 167.284 22.18C169.219 22.18 170.449 20.62 170.449 18.19C170.449 15.76 169.204 14.185 167.269 14.185ZM166.774 15.52C167.929 15.52 168.664 16.57 168.664 18.19C168.664 19.81 167.929 20.86 166.774 20.86C165.664 20.86 164.929 19.84 164.929 18.19C164.929 16.525 165.664 15.52 166.774 15.52ZM175.499 14.155C173.189 14.155 171.734 15.715 171.734 18.19C171.734 20.665 173.189 22.225 175.499 22.225C177.809 22.225 179.249 20.665 179.249 18.19C179.249 15.715 177.809 14.155 175.499 14.155ZM175.499 15.505C176.714 15.505 177.464 16.54 177.464 18.19C177.464 19.84 176.714 20.875 175.499 20.875C174.284 20.875 173.534 19.84 173.534 18.19C173.534 16.54 174.284 15.505 175.499 15.505ZM186.826 22V14.38H185.116V17.83C184.681 17.98 184.111 18.085 183.556 18.085C182.521 18.085 181.981 17.59 181.981 16.705V14.38H180.271V17.035C180.271 18.52 181.246 19.39 183.001 19.39C183.766 19.39 184.471 19.285 185.116 19.105V22H186.826ZM195.887 22L192.377 17.86L195.527 14.38H193.532L190.757 17.5H190.727V14.38H189.017V22H190.727V18.31H190.757L193.727 22H195.887ZM203.418 14.38H201.648L199.683 20.05H199.653L197.748 14.38H195.918L198.708 22.06C198.348 23.11 197.943 23.455 197.013 23.455C196.743 23.455 196.488 23.41 196.293 23.35V24.745C196.518 24.805 196.818 24.85 197.148 24.85C198.918 24.85 199.758 24.265 200.478 22.33L203.418 14.38Z" fill="#333333"/>
</svg>
