<svg width="164" height="32" viewBox="0 0 164 32" fill="none" xmlns="http://www.w3.org/2000/svg">
<path d="M0 8C0 3.58172 3.58172 0 8 0H24C28.4183 0 32 3.58172 32 8V24C32 28.4183 28.4183 32 24 32H8C3.58172 32 0 28.4183 0 24V8Z" fill="#FFDD2D"/>
<mask id="mask0_1141_320" style="mask-type:alpha" maskUnits="userSpaceOnUse" x="0" y="0" width="32" height="32">
<path d="M0 8C0 3.58172 3.58172 0 8 0H24C28.4183 0 32 3.58172 32 8V24C32 28.4183 28.4183 32 24 32H8C3.58172 32 0 28.4183 0 24V8Z" fill="#FFDD2D"/>
</mask>
<g mask="url(#mask0_1141_320)">
<path fill-rule="evenodd" clip-rule="evenodd" d="M30 13.9522L29.6365 15.162C29.4438 15.7893 28.8111 16.8217 27.6338 16.9262C27.7627 17.4914 28.0497 18.1263 28.6833 18.3996L29.5956 18.7895L29.1034 19.6803C28.9923 19.8698 28.4194 20.7443 27.2243 20.7443C27.02 20.7443 26.8221 20.7225 26.6325 20.6811C26.5843 20.9022 26.5246 21.1243 26.4534 21.3454C26.1737 22.2111 26.4146 22.8134 26.4251 22.8384L26.865 23.8011L25.8553 24.0788L25.8542 24.0791C25.8329 24.0849 25.5315 24.167 25.1661 24.167C24.9933 24.167 24.8288 24.1485 24.6748 24.1104C24.5575 24.0821 24.4444 24.044 24.3365 23.9982C24.2056 24.2411 24.0474 24.4622 23.8641 24.6592C23.221 25.3475 22.3076 25.696 21.1502 25.696L20.3217 25.6851L22.0217 26.4223L20.7511 27.0637C20.3007 27.2924 19.7226 27.5854 19.1381 27.8076L19.3015 28.2682L18.8543 28.4806C18.8144 28.5002 17.9629 28.8954 16.5457 28.9826C16.5457 28.9826 16.2053 29 16.0157 29C15.8261 29 15.4815 28.9837 15.4815 28.9837C14.0576 28.8989 13.2003 28.5006 13.1575 28.4807L13.1573 28.4806L12.7111 28.2693L12.8724 27.8097C12.3047 27.5941 11.7464 27.312 11.2761 27.0736L9.98142 26.4234L11.6867 25.6872L10.8613 25.6981H10.8571C9.70077 25.6981 8.78845 25.3496 8.14426 24.6625C7.95992 24.4643 7.80173 24.2432 7.67187 24.0004C7.56399 24.0461 7.45187 24.0842 7.33461 24.1126C7.17957 24.1507 7.01515 24.1692 6.84231 24.1692C6.46207 24.1692 6.15835 24.0831 6.14575 24.0788L5.1402 23.8033L5.59061 22.8221C5.59376 22.8155 5.83464 22.2122 5.55502 21.3476C5.48376 21.1276 5.42304 20.9055 5.37485 20.6833C5.18634 20.7246 4.99043 20.7453 4.7872 20.7464C3.84873 20.7464 3.18989 20.178 2.90917 19.6923L2.41167 18.7917L3.32398 18.4007C3.95661 18.1274 4.24465 17.4936 4.37457 16.9273C3.18044 16.8162 2.55726 15.7839 2.3708 15.1609L2 13.9522L3.22548 13.9935C3.31454 13.9924 4.05299 13.9706 4.76735 13.4305C4.75489 13.4317 4.74249 13.4331 4.73012 13.4345L4.73007 13.4345H4.73006H4.73004H4.73002H4.73001H4.72999H4.72998H4.72996H4.72995L4.72993 13.4345L4.72989 13.4345H4.72987L4.72986 13.4345L4.72981 13.4345H4.7298L4.72978 13.4345L4.72968 13.4345C4.68805 13.4391 4.64663 13.4436 4.60396 13.4436C3.86756 13.4436 3.15327 12.983 2.86728 12.3219L2.353 11.1294C3.11343 11.1436 3.6047 11.0521 3.6047 11.0521C3.60454 11.0521 3.60507 11.052 3.60627 11.0518C3.63632 11.0465 4.08628 10.9659 4.60396 10.4162C4.99255 10.0045 5.47226 9.78672 5.9918 9.78672C6.21906 9.78672 6.42229 9.82919 6.59616 9.88692C6.56892 9.78995 6.5438 9.69197 6.52805 9.59178C6.37725 8.58555 6.9313 7.78508 7.04342 7.63375L7.96197 6.46194L8.52341 7.83736C8.52341 7.83736 8.6638 8.15319 8.91515 8.30781C8.99264 7.90597 9.1802 7.45298 9.58235 7.0217C10.3365 6.20819 11.2572 6.08623 11.739 6.08623C11.9632 6.08623 12.1213 6.11129 12.1737 6.12003L12.2094 6.12655L13.2505 6.33997C13.1887 6.08623 13.0546 5.64628 12.8095 5.2488L12.2062 4.27308L13.7208 4.45277L14.2026 3.38659L15.14 3.88756L16.0021 3L16.8662 3.88756L17.8005 3.38659L18.2834 4.45277L19.799 4.27308L19.1967 5.2488C18.9517 5.64628 18.8176 6.08737 18.7547 6.34104L19.8461 6.11781C19.8849 6.11129 20.0442 6.08623 20.2673 6.08623C20.7491 6.08623 21.6697 6.20712 22.426 7.0217C22.8272 7.45406 23.0147 7.90597 23.0911 8.30781C23.3381 8.15502 23.4786 7.84725 23.4876 7.82743L23.4881 7.82647L24.0485 6.45871L24.9524 7.62286C24.9524 7.62171 25.6437 8.47332 25.4782 9.58956C25.4635 9.69083 25.4374 9.78887 25.4101 9.88577C25.585 9.82805 25.7883 9.78558 26.0155 9.78558C26.5351 9.78558 27.0148 10.0034 27.4023 10.415C27.9294 10.9747 28.3867 11.0476 28.414 11.0519L28.4152 11.0521C28.4152 11.0521 29.0081 11.1371 29.6564 11.1283L29.139 12.3208C28.853 12.9807 28.1398 13.4425 27.4023 13.4425C27.3597 13.4425 27.3178 13.4378 27.276 13.4332L27.2759 13.4332C27.2643 13.4319 27.2527 13.4306 27.2411 13.4294C27.9575 13.9696 28.6959 13.9913 28.7975 13.9913L30 13.9522ZM13.3175 6.76037L13.3301 6.75707L13.328 6.74619L13.3175 6.76037Z" fill="white"/>
<path fill-rule="evenodd" clip-rule="evenodd" d="M18.3112 18.7185H11.8495V14.8384C11.8495 14.4627 11.7438 14.0847 11.6191 13.7363H14.531C14.8075 14.0217 15.0788 14.2002 15.3365 14.2982C15.304 14.4365 15.26 14.7208 15.3836 15.005C15.4852 15.2348 15.6685 15.4112 15.9346 15.5288C15.9639 15.812 16.1367 16.2388 16.6123 16.4262C16.4038 16.645 16.2006 16.8519 16.1189 16.9347L14.1853 16.9031C14.1414 16.8814 14.067 16.8291 14.0335 16.7572C14.0312 16.7514 14.0284 16.7471 14.0256 16.7429C14.0232 16.7392 14.0207 16.7356 14.0188 16.731L14.3341 16.7845C14.3404 16.7855 14.3477 16.7855 14.354 16.7855C14.4158 16.7855 14.4682 16.7408 14.4786 16.6766C14.4891 16.6036 14.4419 16.5372 14.3739 16.5263L13.9863 16.4632L14.4168 14.9168L14.0094 14.0249L13.3557 14.7436L13.316 16.351L12.8771 16.2791C12.809 16.2649 12.7441 16.3161 12.7326 16.3881C12.7221 16.4588 12.7682 16.5253 12.8373 16.5383L13.0216 16.5677C12.9567 16.6069 12.9127 16.6374 12.9075 16.6418L12.8708 16.669L12.8604 16.7169C12.7535 17.1678 12.9944 17.5957 13.2563 17.7874L13.2468 17.844C13.2353 17.9137 13.251 17.9813 13.2909 18.0378C13.3296 18.0956 13.3872 18.1304 13.4532 18.1424C13.4668 18.1457 13.4815 18.1468 13.494 18.1468C13.6072 18.1468 13.7056 18.0651 13.7328 17.9464C13.8303 17.9583 13.9193 17.9606 13.98 17.9606H14.0314L16.5672 18.4375L16.6101 18.407C16.8112 18.2611 17.5821 17.6774 17.8346 17.4836C17.9037 17.5445 17.9812 17.6012 18.0755 17.648C17.9928 17.9333 17.9886 18.3722 18.3112 18.7185ZM11.8496 18.9799H20.1589L20.1579 22.2306C20.1579 23.3065 19.5493 24.059 18.5909 24.304L18.7512 23.435C18.7606 23.3839 18.7701 23.3239 18.7774 23.2739C18.8234 23.2934 18.8706 23.3098 18.923 23.3196C18.9827 23.3316 19.0382 23.337 19.0884 23.337C19.3335 23.337 19.476 23.2031 19.5713 23.0887L19.6949 22.9396L19.5943 22.7762C19.5936 22.7751 19.5917 22.772 19.5888 22.7671C19.5519 22.7068 19.3491 22.3753 19.1911 22.1435C19.1576 22.0945 19.1251 22.0443 19.0927 21.9921L19.0908 21.9892C18.8962 21.6869 18.6532 21.3093 18.1656 21.3093L18.1217 21.3104C18.0421 21.3158 17.9729 21.3322 17.9164 21.3539C17.7634 21.2799 17.6043 21.2407 17.4398 21.2407C17.2376 21.2407 17.0669 21.2984 16.9538 21.3387C16.9435 21.3418 16.9335 21.345 16.924 21.3481C16.9034 21.3547 16.8847 21.3608 16.869 21.3638L15.9555 21.2701C15.944 21.2679 15.9063 21.245 15.8613 21.1895V21.1841L16.0592 21.1013C16.0037 20.4163 15.3721 19.9949 15.0192 19.8522C15.0035 19.7836 14.972 19.715 14.9165 19.6595L14.7206 19.4656L14.5478 19.6802L14.463 19.7901L13.183 19.2434L14.0157 20.3303L13.6869 20.8475C13.5664 20.9804 13.6994 21.1133 13.6994 21.1133L14.0388 21.3572L14.3907 21.2211C14.3976 21.2211 14.4045 21.2223 14.4114 21.2235C14.416 21.2242 14.4206 21.225 14.4252 21.2255C14.4153 21.2566 14.404 21.3386 14.3934 21.4155C14.3851 21.4758 14.3773 21.533 14.3708 21.5598L13.7602 21.4345L13.1181 21.8113C12.7882 22.0629 12.7431 22.48 12.8657 22.7653L12.9368 22.9275L13.0385 23.1563L13.2637 23.0593C13.2668 23.0593 13.2699 23.0582 13.272 23.0561C13.1914 23.3239 13.2249 23.5799 13.3684 23.7465L13.5046 23.924L13.6858 24.1625L13.8848 23.9404C13.9424 23.8793 14.133 23.6583 14.1917 23.4688L14.2346 23.3239L14.1372 23.2129L14.1205 23.1933L14.2294 23.006L15.0265 23.2009L15.2056 23.2434L15.3009 23.08L15.3533 22.9907C15.3628 22.9722 15.3658 22.9689 15.4025 22.9689C15.4308 22.9689 15.4591 22.9712 15.4895 22.9787C15.7901 23.0375 16.0677 23.067 16.3138 23.067C16.5537 23.067 16.6961 23.0572 16.8658 22.9984C16.8658 22.9984 17.2942 23.5047 17.3088 23.5233L17.047 24.3651L17.0355 24.4151C16.539 24.4576 16.297 24.5709 16.0048 24.8736C15.5806 24.4358 15.28 24.3901 14.1393 24.3901C12.7745 24.3901 11.8496 23.5581 11.8496 22.2295V18.9799Z" fill="#FFDD2D"/>
<path fill-rule="evenodd" clip-rule="evenodd" d="M18.1893 6.45799C17.7588 6.09968 16.9796 5.76423 16.0054 5.76423C15.0324 5.76423 14.2552 6.09968 13.8236 6.45799C13.8236 6.45799 13.6958 5.65751 13.259 4.95079L14.0436 5.04332L14.4532 4.13621L15.2429 4.55875L16.0054 3.77246L16.77 4.55875L17.5588 4.13621L17.9694 5.04332L18.7539 4.95079C18.3171 5.65751 18.1893 6.45799 18.1893 6.45799ZM14.2258 5.3853L14.008 5.3613L13.7995 5.33516C13.8949 5.55732 13.964 5.76967 14.0153 5.94506C14.5662 5.62708 15.2796 5.44624 16.0044 5.44624C16.7323 5.44624 17.4467 5.62708 17.9955 5.94506C18.0458 5.76967 18.116 5.55847 18.2113 5.33516L18.0039 5.3613L17.786 5.3853L17.6939 5.17947L17.4163 4.56964L16.9104 4.84293L16.7135 4.9475L16.5564 4.78635L16.0065 4.22007L15.4576 4.78635L15.3005 4.9475L15.1036 4.84293L14.5945 4.56964L14.3201 5.17947L14.2258 5.3853ZM14.513 20.3885C14.4659 20.3841 14.426 20.4222 14.4229 20.4701C14.4197 20.5202 14.4554 20.5627 14.5035 20.5637C14.5496 20.5681 14.5905 20.5311 14.5946 20.4821C14.5946 20.4342 14.5612 20.3896 14.513 20.3885ZM20.149 26.281L19.6703 26.0905L19.8022 25.5765L19.9478 25.0156C19.9478 25.0156 19.0994 25.4937 17.9043 25.853C17.5649 25.9544 17.3083 26.0001 17.3083 26.0001V26.3812C17.3083 26.3812 16.6694 26.4967 16.0231 26.4967H16.0158H16.0064H15.9938H15.9864C15.3402 26.4967 14.7013 26.3812 14.7013 26.3812V26.0001C14.7013 26.0001 14.4435 25.9544 14.1053 25.853C12.9101 25.4937 12.0627 25.0156 12.0627 25.0156L12.2063 25.5765L12.3414 26.0905L11.8616 26.281L11.3296 26.4879C11.3928 26.5197 11.4586 26.5529 11.5266 26.5872C12.1147 26.8841 12.8657 27.2633 13.5596 27.4604L13.3773 27.9788C13.3773 27.9788 14.3587 28.4438 15.9938 28.4482V28.4493H15.999H16.0064H16.0127H16.0168V28.4482C17.654 28.4438 18.6343 27.9788 18.6343 27.9788L18.451 27.4604C19.1546 27.2605 19.9188 26.8734 20.5083 26.5748L20.5084 26.5747L20.5089 26.5744C20.5678 26.5446 20.6249 26.5157 20.68 26.4879L20.149 26.281ZM11.8973 26.5228L12.685 26.2506L12.4524 25.461C12.7991 25.6658 13.5774 25.9729 14.0278 26.1155L13.6475 27.2013C12.9521 27.002 12.3728 26.77 11.8973 26.5228ZM16.0064 28.1759C15.0919 28.1759 14.0476 27.957 13.7408 27.8438L14.2079 26.5293C14.5954 26.6469 15.402 26.7722 15.9875 26.7678H15.9886H16.0064H16.022H16.0242C16.6097 26.7722 17.4141 26.6469 17.8037 26.5293L18.2698 27.8438C17.963 27.9581 16.9197 28.1759 16.0064 28.1759ZM18.3631 27.2013L17.9839 26.1155C18.4353 25.9729 19.2115 25.6658 19.5592 25.461L19.3277 26.2506L20.1144 26.5228C19.6378 26.77 19.0617 27.002 18.3631 27.2013ZM27.4338 16.3852C28.694 16.3852 29.115 15.0524 29.1328 14.9957L29.2732 14.5263L28.8008 14.5416H28.7987C28.6322 14.5416 27.2422 14.5035 26.2566 13.201L26.1633 13.0801L26.1601 13.0759C25.5172 12.2259 24.9067 11.4188 23.8171 11.0502C23.8485 11.0208 23.8935 10.9838 23.9554 10.9424C24.5346 10.546 24.8719 10.0647 24.9567 9.50606C25.0803 8.66534 24.565 7.99557 24.5419 7.96835L24.191 7.51752L23.9721 8.05222L23.972 8.0526C23.9549 8.09192 23.586 8.94193 22.8137 8.94193H22.756C22.7398 8.94093 22.7239 8.94003 22.7082 8.93915L22.708 8.93914C22.672 8.93712 22.637 8.93515 22.6021 8.93211C22.6293 8.54989 22.5622 7.95854 22.0469 7.40422C21.4279 6.73667 20.6674 6.63648 20.2695 6.63648C20.074 6.63648 19.9388 6.65946 19.9068 6.66491L19.9066 6.66493L19.904 6.66537C19.9026 6.66561 19.9015 6.66579 19.9007 6.66591L19.3708 6.77477L19.6976 7.22238C19.9542 7.56758 20.1867 8.20469 19.9112 8.53793C19.8278 8.63805 19.6607 8.72054 19.4955 8.80212L19.4682 8.81559C19.111 8.98654 18.6239 9.22396 18.6239 9.82949C18.6239 10.2215 18.9162 10.631 19.4461 10.9795C21.0152 12.0053 21.9831 13.0758 22.401 14.2573C23.0472 16.0749 22.204 17.1117 21.3849 17.6572L21.0173 17.9033L21.3389 18.2104L21.339 18.2105C21.3823 18.2501 21.776 18.6102 22.357 18.6624C22.467 18.67 22.5727 18.6765 22.6712 18.6765C23.0441 18.6765 23.3615 18.6156 23.6191 18.5338C23.5479 18.6635 23.4609 18.7953 23.351 18.9281C22.8828 19.4922 22.3067 19.7492 21.4782 19.7623L21.1702 19.7678L21.1461 20.089C21.143 20.1532 21.12 20.7489 21.6625 21.2553C21.7453 21.3337 21.8458 21.398 21.9506 21.4513C21.5829 21.7955 21.209 22.3944 21.1367 23.4213C21.076 24.2784 20.879 24.5953 20.877 24.5985L20.5366 25.1387L21.1514 25.1474C22.1674 25.1474 22.9456 24.8556 23.485 24.2784C23.8035 23.9364 23.9858 23.5509 24.0936 23.209C24.2706 23.3658 24.499 23.503 24.7964 23.576C24.9096 23.6032 25.0332 23.6184 25.1662 23.6184C25.4382 23.6184 25.6679 23.5617 25.7143 23.5502C25.7169 23.5496 25.7189 23.5491 25.7203 23.5487L26.1131 23.4398L25.9392 23.0587L25.9387 23.0574C25.9195 23.0114 25.6027 22.2517 25.9517 21.1725C26.1036 20.701 26.1811 20.2785 26.2188 19.9496C26.4661 20.0835 26.797 20.1946 27.2254 20.1957C28.1701 20.1957 28.6013 19.4829 28.6431 19.4138C28.6443 19.4118 28.6452 19.4103 28.6458 19.4095L28.8374 19.0631L28.4824 18.9107C27.3239 18.4108 27.0673 17.068 27.016 16.3406C27.1207 16.3613 27.2401 16.3809 27.3753 16.3852H27.4338ZM28.3525 19.2319C28.3525 19.2319 28.0131 19.845 27.2349 19.845H27.2254C26.2911 19.8396 25.914 19.2472 25.914 19.2472C25.914 19.2472 25.9685 20.0182 25.6313 21.0582C25.2259 22.3116 25.6344 23.2079 25.6344 23.2079C25.6344 23.2079 25.4165 23.2689 25.1652 23.2689C25.0688 23.2689 24.9682 23.2591 24.874 23.2329C24.0936 23.0402 23.8988 22.3018 23.8988 22.3018C23.8988 22.3018 23.971 24.7968 21.1734 24.7968H21.1514C21.1514 24.7968 21.3975 24.4483 21.4709 23.4453C21.6039 21.594 22.8095 21.3403 22.8095 21.3403C22.8095 21.3403 22.1663 21.2564 21.8877 20.9961C21.452 20.5856 21.4824 20.1107 21.4824 20.1107C22.467 20.0966 23.1111 19.7481 23.6024 19.1568C24.1345 18.5164 24.2225 17.8271 24.2225 17.8271C24.2225 17.8271 23.6935 18.3259 22.6702 18.3259C22.5801 18.3259 22.4837 18.3215 22.3852 18.3117C21.9013 18.2714 21.5661 17.9512 21.5661 17.9512C22.6314 17.2412 23.3793 16.0019 22.7163 14.1354C22.1852 12.6402 20.9094 11.5229 19.6253 10.6811C19.1979 10.4034 18.9601 10.0952 18.9601 9.82949C18.9601 9.44658 19.2809 9.29087 19.61 9.13106C19.8182 9.02998 20.0298 8.92726 20.1658 8.76439C20.57 8.27652 20.3166 7.48486 19.9657 7.00896C19.9657 7.00896 20.084 6.98389 20.2705 6.98389C20.6403 6.98389 21.2802 7.08079 21.806 7.64708C22.5047 8.39849 22.2145 9.21637 22.2145 9.21637L22.402 9.25447C22.5095 9.27851 22.6161 9.28351 22.7263 9.28868L22.7403 9.28934C22.7529 9.28934 22.7655 9.28961 22.778 9.28988C22.7906 9.29015 22.8032 9.29042 22.8158 9.29042C23.8307 9.29042 24.2843 8.18722 24.2843 8.18722C24.2843 8.18722 25.3631 9.56701 23.7752 10.6473C23.5018 10.8324 23.3814 11.0034 23.4128 11.1864L23.4379 11.3062L23.551 11.3269C24.6519 11.6372 25.2326 12.4057 25.9032 13.2932C25.9339 13.3338 25.9647 13.3745 25.9958 13.4155C27.0756 14.8432 28.6039 14.889 28.7924 14.889H28.8123C28.8123 14.889 28.4635 16.0335 27.436 16.0335C27.4192 16.0335 27.4046 16.0335 27.3868 16.0325C26.9144 16.015 26.6724 15.8266 26.6724 15.8266C26.6724 15.8266 26.487 18.4261 28.3525 19.2319ZM26.2044 12.112C25.9645 11.8028 25.6911 11.4543 25.2209 11.194L24.7369 10.9229L25.1852 10.5951C25.187 10.5939 25.1896 10.5923 25.1928 10.5902C25.2559 10.5487 25.5833 10.3337 26.0179 10.3337C26.3919 10.3337 26.7386 10.4938 27.0256 10.7976C27.7232 11.5392 28.3495 11.598 28.3726 11.5991L28.8596 11.6296L28.6585 12.0935C28.4585 12.5563 27.9305 12.8907 27.4047 12.8907C27.2706 12.8907 27.1387 12.87 27.014 12.8253C26.6682 12.7058 26.4452 12.4203 26.2125 12.1224L26.2044 12.112ZM26.7857 11.0448C26.527 10.7671 26.2536 10.6844 26.019 10.6844C25.6545 10.6844 25.38 10.8847 25.38 10.8847C25.9101 11.1777 26.2123 11.5665 26.466 11.8932C26.6821 12.1712 26.8631 12.4042 27.1198 12.4943C27.2151 12.528 27.3105 12.5433 27.4058 12.5433C27.8174 12.5433 28.2155 12.2656 28.3526 11.9498C28.3526 11.9498 27.5975 11.9019 26.7857 11.0448ZM25.4407 15.8213V15.8387C25.1579 13.4668 23.5008 11.7539 21.6574 10.7117C21.4866 10.6169 21.3295 10.5364 21.1766 10.459C21.738 10.5494 22.642 10.5603 23.3395 9.93083C23.3395 9.93083 22.2722 10.7476 20.0852 10.006C20.2607 10.1244 20.4841 10.2569 20.7391 10.408L20.7392 10.408C21.3639 10.7784 22.1781 11.261 22.9405 11.9237C25.6251 14.3761 23.7041 16.7687 23.7041 16.7687C24.6687 15.7222 24.7085 14.6005 24.4247 13.6847C24.9327 14.5635 25.2574 15.6307 25.2071 16.9462C25.1328 18.8313 24.1367 20.4615 23.0882 21.7716C22.5843 22.4076 22.4712 23.1884 22.4712 23.1884C22.4712 23.1884 22.6744 22.499 23.2578 21.7901C24.3817 20.4223 25.3422 19.0012 25.4679 16.9538C25.5842 17.3252 26.0629 18.3587 26.8223 18.7474L26.822 18.7472C26.8031 18.7349 25.8653 18.1246 25.4407 15.8213ZM11.1325 24.5953C11.1333 24.5966 11.1336 24.5973 11.1337 24.5974L11.4752 25.1365L10.8593 25.1451C9.84325 25.1451 9.06605 24.8533 8.52563 24.2761C8.20822 23.9342 8.02491 23.5486 7.91805 23.2067C7.74316 23.3636 7.51275 23.5007 7.21424 23.5737C7.10321 23.6009 6.97959 23.6162 6.84549 23.6162C6.56812 23.6162 6.33211 23.5567 6.29437 23.5472L6.29145 23.5465L5.89758 23.4376L6.07144 23.0564L6.07202 23.055C6.0917 23.0079 6.40879 22.2486 6.05994 21.1703C5.90805 20.6987 5.83056 20.2762 5.79285 19.9473C5.54457 20.0813 5.21361 20.1923 4.78839 20.1935C3.82893 20.1935 3.39785 19.4613 3.3671 19.4091L3.36597 19.4072L3.17424 19.0609L3.52827 18.9084C4.68784 18.4075 4.94439 17.0647 4.99683 16.3384C4.88997 16.3601 4.77053 16.3787 4.63753 16.383L4.57681 16.3852C3.31566 16.3852 2.89565 15.0522 2.87888 14.9956L2.73438 14.5263L3.20881 14.5415C3.37535 14.5415 4.76847 14.5034 5.75308 13.2009L5.84624 13.08L5.85418 13.0695C6.49545 12.2218 7.10454 11.4167 8.19042 11.0491C8.159 11.0197 8.11499 10.9826 8.05215 10.9412C7.47291 10.5448 7.13565 10.0635 7.05187 9.50487C6.9291 8.68462 7.42005 8.02547 7.46131 7.97007L7.46347 7.96716L7.81757 7.51633L8.03647 8.05103L8.03666 8.05145C8.05393 8.09133 8.42173 8.94074 9.19597 8.94074H9.25251C9.26768 8.9398 9.28267 8.93895 9.29755 8.93811L9.29787 8.93809L9.29805 8.93808C9.33435 8.93603 9.36991 8.93401 9.40543 8.93092C9.37928 8.54977 9.44732 7.9585 9.96372 7.4031C10.5838 6.73555 11.3421 6.63536 11.7402 6.63536C11.9321 6.63536 12.064 6.6573 12.1002 6.66334C12.1044 6.66402 12.1072 6.6645 12.1088 6.66472L12.641 6.77365L12.3121 7.22119C12.0565 7.56646 11.8229 8.20458 12.0995 8.53674C12.1828 8.63686 12.35 8.71935 12.5152 8.80093L12.5425 8.8144C12.8997 8.98435 13.3857 9.22284 13.3857 9.8283C13.3857 10.2203 13.0956 10.6298 12.5656 10.9783C10.9944 12.0041 10.0276 13.0746 9.60969 14.2562C8.96447 16.0727 9.8045 17.1094 10.6267 17.6561L10.9944 17.9022L10.6728 18.2093C10.6289 18.2496 10.235 18.6089 9.6537 18.6612C9.5437 18.6688 9.44 18.6754 9.33944 18.6754C8.96549 18.6754 8.65021 18.6144 8.39256 18.5327C8.46381 18.6623 8.55178 18.7941 8.66075 18.9269C9.12889 19.49 9.70607 19.7469 10.5325 19.7611L10.8425 19.7666L10.8634 20.0878C10.8666 20.1521 10.8897 20.7477 10.3481 21.2541C10.2654 21.3336 10.167 21.3979 10.0601 21.4502C10.4288 21.7943 10.8017 22.3932 10.875 23.4201C10.9352 24.241 11.1164 24.5664 11.1325 24.5953ZM8.10978 22.3018C8.10978 22.3018 8.03853 24.7966 10.8363 24.7966H10.8561C10.8561 24.7966 10.6121 24.4482 10.5398 23.4452C10.4078 21.5939 9.20117 21.3402 9.20117 21.3402C9.20117 21.3402 9.84434 21.2552 10.124 20.996C10.5597 20.5855 10.5283 20.1107 10.5283 20.1107C9.5437 20.0965 8.89951 19.748 8.40515 19.1567C7.87616 18.5164 7.7882 17.827 7.7882 17.827C7.7882 17.827 8.31719 18.3258 9.33944 18.3258C9.43165 18.3258 9.52693 18.3215 9.62543 18.3116C10.1103 18.2713 10.4455 17.9512 10.4455 17.9512C9.37819 17.24 8.63138 16.0019 9.29338 14.1353C9.82339 12.6401 11.0991 11.5228 12.3844 10.681C12.8117 10.4033 13.0494 10.094 13.0494 9.82937C13.0494 9.44618 12.7286 9.29012 12.3998 9.13013C12.1922 9.02914 11.9814 8.92658 11.846 8.76434C11.4417 8.27648 11.6951 7.48582 12.045 7.00885C12.045 7.00885 11.9287 6.98385 11.7412 6.98385C11.3725 6.98385 10.7326 7.07967 10.2067 7.64703C9.50701 8.39845 9.79718 9.21625 9.79718 9.21625L9.60969 9.25442C9.50886 9.27712 9.40627 9.28281 9.30281 9.28855H9.30278C9.29233 9.28913 9.28187 9.28971 9.2714 9.2903C9.25819 9.2903 9.24579 9.2906 9.23351 9.29089H9.23349H9.23347H9.23346H9.23344H9.23342H9.2334C9.22135 9.29117 9.20942 9.29145 9.197 9.29145C8.17995 9.29145 7.72851 8.18932 7.72851 8.18932C7.72851 8.18932 6.64965 9.56804 8.23758 10.6494C8.51091 10.8345 8.63036 11.0055 8.59894 11.1885L8.57375 11.3083L8.45854 11.329C7.35787 11.6409 6.77621 12.4104 6.10406 13.2998C6.07453 13.3388 6.04483 13.3781 6.0149 13.4176C4.93502 14.8453 3.40889 14.8911 3.21928 14.8911H3.19834C3.19834 14.8911 3.54607 16.0356 4.57469 16.0356C4.59146 16.0356 4.60713 16.0356 4.6239 16.0346C5.09738 16.016 5.33929 15.8287 5.33929 15.8287C5.33929 15.8287 5.5226 18.4271 3.65819 19.2319C3.65819 19.2319 3.99757 19.845 4.7758 19.845H4.78524C5.72056 19.8395 6.09663 19.2471 6.09663 19.2471C6.09663 19.2471 6.04215 20.0181 6.37728 21.0581C6.78265 22.3116 6.37626 23.2078 6.37626 23.2078C6.37626 23.2078 6.59311 23.2688 6.84446 23.2688C6.94187 23.2688 7.0414 23.259 7.13463 23.2329C7.91497 23.0401 8.10978 22.3018 8.10978 22.3018ZM4.60511 12.8919C4.74023 12.8919 4.87221 12.8712 4.99686 12.8265C5.34335 12.7075 5.56495 12.4238 5.79664 12.1271L5.80753 12.1132L5.80822 12.1123L5.80822 12.1123C6.049 11.8033 6.3202 11.4552 6.79001 11.1952L7.27396 10.9251L6.82458 10.5973L6.82037 10.5945C6.76648 10.5583 6.43591 10.336 5.99399 10.336C5.61901 10.336 5.27128 10.495 4.98529 10.7999C4.2877 11.5404 3.6624 11.6003 3.63933 11.6014L3.1523 11.6308L3.35239 12.0958C3.5535 12.5564 4.0803 12.8919 4.60511 12.8919ZM5.22514 11.046C5.48492 10.7683 5.75831 10.6856 5.99399 10.6856C6.35637 10.6856 6.63086 10.8859 6.63086 10.8859C6.10246 11.1788 5.80042 11.5665 5.54651 11.8925C5.32929 12.1714 5.14729 12.4051 4.88891 12.4955C4.79678 12.5292 4.7004 12.5445 4.60511 12.5445C4.19345 12.5445 3.7954 12.2679 3.65925 11.951C3.65925 11.9509 3.66023 11.9508 3.66214 11.9506C3.71352 11.9454 4.44255 11.8712 5.22514 11.046ZM7.58497 13.6857C7.07596 14.5645 6.75123 15.6318 6.80359 16.9473C6.87691 18.8324 7.87301 20.4637 8.91942 21.7716C9.42535 22.4076 9.53952 23.1884 9.53952 23.1884C9.53952 23.1884 9.33424 22.499 8.75076 21.7901C7.62686 20.4223 6.66642 19.0012 6.53965 16.9539C6.42342 17.3263 5.94576 18.3586 5.18739 18.7475C5.18739 18.7475 6.14057 18.1496 6.56901 15.8202V15.8387C6.85281 13.4669 8.50885 11.7538 10.3544 10.7117C10.5157 10.621 10.6683 10.5434 10.8142 10.4692L10.8341 10.4591C10.2727 10.5505 9.36874 10.5614 8.67115 9.93195C8.67115 9.93195 9.73851 10.7487 11.9245 10.0071C11.7487 10.1259 11.5246 10.2589 11.2687 10.4107L11.2687 10.4107C10.6449 10.7808 9.83227 11.263 9.07022 11.9249C6.3846 14.3773 8.30562 16.7698 8.30562 16.7698C7.33991 15.7233 7.30117 14.6016 7.58497 13.6857ZM15.3738 12.148V12.6185C15.5299 12.4214 15.8315 12.4617 15.8315 12.4617V13.1402C15.8315 13.1402 15.8211 13.4734 15.7069 13.6182H16.0337H16.3594C16.2474 13.4745 16.2358 13.1402 16.2358 13.1402V12.4617C16.2358 12.4617 16.5375 12.4214 16.6925 12.6185V12.148H16.0337H15.3738ZM15.4197 9.55921C15.3919 9.54954 15.2765 9.50949 15.0931 9.35799C14.7485 9.07918 14.7412 8.82329 14.7412 8.82222L15.5079 9.15761V9.60085L15.4262 9.56167C15.4257 9.56128 15.4235 9.56053 15.4197 9.55921ZM16.9167 9.35799C17.2634 9.07918 17.2697 8.82222 17.2697 8.82222L16.503 9.15761V9.60085L16.5836 9.56167C16.5842 9.56132 16.5861 9.56066 16.5893 9.55957C16.6159 9.55054 16.7309 9.5114 16.9167 9.35799ZM16.0085 6.2772C17.2099 6.2772 18.2982 6.88158 18.2982 7.5535L18.2752 7.71901L17.7954 10.582L18.2752 10.8728L19.5216 11.6296H19.5174C19.5174 11.6296 19.7981 11.7788 19.9259 11.8714C20.4035 12.2145 20.5031 12.7143 20.2275 12.9212C20.1584 12.5128 19.8494 12.0871 19.2692 12.0871C18.8513 12.0871 18.5338 12.3103 18.2741 12.6479C18.2091 12.7328 18.1474 12.8232 18.0876 12.9212C18.0154 13.0442 17.9431 13.1532 17.8719 13.2566H21.0833C20.8466 13.7499 20.6224 14.2727 20.6224 14.84V22.2279C20.6224 24.016 19.3016 24.8698 17.8698 24.8698C17.7849 24.8698 17.7056 24.8695 17.6313 24.8692C16.7372 24.8656 16.5673 24.8649 16.0064 25.4491C15.4418 24.8651 15.2721 24.8658 14.3755 24.8692C14.3023 24.8695 14.2243 24.8698 14.1409 24.8698C12.7101 24.8698 11.3872 24.016 11.3872 22.2279V14.84C11.3872 14.2727 11.1631 13.7499 10.9274 13.2566H14.1378C14.0655 13.1521 13.9932 13.0442 13.921 12.9212C13.8623 12.8232 13.7995 12.7328 13.7335 12.6479C13.4758 12.3114 13.1574 12.0871 12.7394 12.0871C12.1592 12.0871 11.8492 12.5139 11.7811 12.9212C11.5056 12.7143 11.6062 12.2145 12.0806 11.8714C12.2105 11.7788 12.4912 11.6296 12.4912 11.6296H12.487L13.7335 10.8728L14.2153 10.582L13.7355 7.71901L13.7115 7.5535C13.7115 6.88158 14.7998 6.2772 16.0012 6.2772H16.0043H16.0074H16.0085ZM15.8702 8.48131L14.1838 7.88674L14.629 10.5548L15.8702 11.2354V8.48131ZM15.3381 14.2988C15.0805 14.2008 14.8092 14.0232 14.5327 13.7368V13.7391H11.6208C11.7455 14.0876 11.8512 14.4654 11.8512 14.8411V18.7191H18.3139C17.9902 18.3727 17.9955 17.9339 18.0771 17.6485C17.9829 17.6018 17.9054 17.5451 17.8363 17.483C17.5838 17.6758 16.8139 18.2595 16.6118 18.4065L16.5689 18.4359L14.033 17.96H13.9817C13.921 17.96 13.8319 17.9579 13.7345 17.9459C13.7063 18.0646 13.6078 18.1462 13.4947 18.1462C13.4821 18.1462 13.4674 18.1451 13.4538 18.143C13.3888 18.131 13.3302 18.0962 13.2925 18.0384C13.2527 17.9818 13.238 17.9143 13.2485 17.8446L13.258 17.788C12.9971 17.5963 12.7552 17.1683 12.862 16.7174L12.8725 16.6695L12.9102 16.6423C12.9154 16.6379 12.9584 16.6075 13.0243 16.5683L12.84 16.5389C12.7709 16.5258 12.7248 16.4594 12.7353 16.3886C12.7468 16.3178 12.8117 16.2655 12.8798 16.2797L13.3187 16.3515L13.3585 14.7442L14.0121 14.0255L14.4195 14.9173L13.989 16.4626L14.3766 16.5258C14.4447 16.5367 14.4918 16.6031 14.4813 16.6761C14.4709 16.7414 14.4175 16.785 14.3567 16.785C14.3504 16.785 14.3442 16.785 14.3368 16.7839L14.0215 16.7305C14.0234 16.7368 14.0262 16.7413 14.0291 16.7459C14.0312 16.7492 14.0334 16.7525 14.0352 16.7567C14.0686 16.8297 14.143 16.8808 14.187 16.9037L16.1195 16.9353L16.1232 16.9316C16.2081 16.8455 16.4085 16.6424 16.6139 16.4267C16.1373 16.2383 15.9656 15.8125 15.9362 15.5294C15.6712 15.4118 15.4869 15.2353 15.3853 15.0066C15.2606 14.7224 15.3046 14.4371 15.3381 14.2988ZM16.5112 18.156C16.7501 17.9818 17.4099 17.4809 17.6666 17.2849C17.4801 17.0017 17.4623 16.6663 17.5042 16.431C17.3827 16.3494 17.2895 16.2568 17.2151 16.1599C16.9395 16.4723 16.431 16.9873 16.293 17.127C16.2742 17.146 16.2623 17.1581 16.2588 17.1618L16.2222 17.201L14.2855 17.1683C14.2834 17.3676 14.253 17.5375 14.2227 17.6616C14.2198 17.6733 14.217 17.6846 14.2142 17.696C14.2118 17.7059 14.2094 17.7158 14.2069 17.7259L16.5112 18.156ZM14.0299 17.1128C13.9618 17.0681 13.8633 16.9887 13.8089 16.8699C13.746 16.7327 13.657 16.6684 13.5261 16.6695C13.3564 16.6695 13.1752 16.7752 13.0966 16.8253C13.0338 17.2054 13.304 17.5506 13.4852 17.6202C13.6486 17.6823 13.8487 17.6954 13.9503 17.6954C13.9545 17.6823 13.9597 17.666 13.9649 17.6464C13.9744 17.6148 13.9827 17.5832 13.989 17.5495C14.0173 17.397 14.0278 17.2238 14.0299 17.1128ZM13.6078 14.8487L13.569 16.3919L13.7377 16.418L14.1504 14.9369L13.9408 14.4817L13.6078 14.8487ZM17.2989 24.3982C17.4036 24.3939 17.5199 24.3917 17.6456 24.3917C17.6456 24.3917 17.9463 23.478 17.9641 23.4497C17.7954 23.3724 17.4455 23.1797 17.3104 23.0914C17.3394 23.1364 17.3819 23.1835 17.4245 23.2307C17.5131 23.3288 17.6023 23.4277 17.5733 23.5107L17.2989 24.3982ZM18.3275 24.3547L18.5066 23.3833C18.5265 23.2766 18.5453 23.135 18.5453 23.1328C18.5352 23.1221 18.523 23.1097 18.5092 23.0956C18.4287 23.0138 18.2948 22.8778 18.2144 22.7179C18.1482 22.5849 18.1358 22.4852 18.1217 22.3727C18.109 22.2714 18.095 22.1599 18.0395 22.0046C18.0395 22.0046 18.0761 21.9284 18.1589 21.9284C18.1715 21.9284 18.1861 21.9294 18.1997 21.9338C18.3087 21.9662 18.3831 22.1583 18.4671 22.3754C18.581 22.6695 18.7125 23.0092 18.9717 23.0588C19.0157 23.0674 19.0565 23.0707 19.0921 23.0707C19.222 23.0707 19.2995 23.0141 19.3833 22.9107C19.3833 22.9107 19.1571 22.5404 18.9874 22.291C18.9517 22.2391 18.9173 22.1855 18.883 22.132C18.7009 21.8482 18.5218 21.569 18.1683 21.569C18.1578 21.569 18.1463 21.569 18.1358 21.57C17.9976 21.5777 17.9127 21.6474 17.9127 21.6474C17.743 21.5363 17.5838 21.4982 17.4414 21.4982C17.2804 21.4982 17.1411 21.5456 17.0339 21.5821C16.9667 21.6049 16.9121 21.6235 16.8726 21.6235H16.8684L15.932 21.5276C15.7854 21.5135 15.6702 21.3599 15.6283 21.3C15.6178 21.2836 15.6126 21.2738 15.6126 21.2738C15.6126 21.2478 15.6126 21.2205 15.6105 21.1966C15.5791 20.4016 14.9862 20.0607 14.7746 20.0553C14.7746 20.0553 14.7987 19.9039 14.7421 19.8462L14.5358 20.1065L13.8581 19.7525L14.342 20.3395L13.9325 20.8165C13.8801 20.8709 13.8874 20.9439 13.9084 20.9755L14.0854 21.1378L14.3096 20.9962C14.3211 20.9874 14.342 20.9853 14.3661 20.9853C14.3947 20.9853 14.43 20.9888 14.4679 20.9925C14.5121 20.9969 14.5599 21.0016 14.6049 21.0016C14.6971 21.0016 14.7757 20.982 14.7851 20.8927C14.7766 20.9816 14.7468 21.0903 14.714 21.2098C14.638 21.4869 14.546 21.8222 14.6668 22.1037L14.7956 22.4086L13.9681 22.2844L13.5806 22.9651C13.4601 23.1916 13.4412 23.4355 13.5565 23.5695L13.7021 23.7579C13.7021 23.7579 13.9052 23.5347 13.9503 23.3866L13.8843 23.3114C13.8288 23.2483 13.8309 23.1905 13.8655 23.123L14.1085 22.7048L15.0857 22.9444L15.138 22.8529C15.204 22.7375 15.2994 22.7038 15.4041 22.7038C15.447 22.7038 15.491 22.7092 15.5371 22.7168C15.7184 22.7538 16.0169 22.804 16.3154 22.804C16.6422 22.804 16.968 22.744 17.1408 22.5415C17.3222 22.821 17.5989 22.9799 17.8181 23.1057C18.0268 23.2255 18.1833 23.3154 18.1557 23.4508L17.9672 24.3851C18.0919 24.3797 18.2134 24.371 18.3275 24.3547ZM13.5208 22.5764L13.4779 22.4641C13.4465 22.3912 13.4507 22.3117 13.5093 22.2693L13.8592 22.0177L14.4436 22.1342C14.4436 22.1342 14.3379 21.997 14.3483 21.8129L13.7911 21.6899L13.2653 22.0231C13.0391 22.1984 13.0233 22.4848 13.0977 22.6547L13.1679 22.8137C13.1679 22.8137 13.4925 22.6743 13.5208 22.5764ZM18.7549 23.4323L18.5946 24.3013C19.553 24.0563 20.1616 23.3048 20.1605 22.2268L20.1584 18.9783H11.8502V22.2268C11.8502 23.5554 12.775 24.3874 14.1399 24.3874C15.2805 24.3874 15.5811 24.433 16.0053 24.8708C16.2976 24.567 16.5395 24.4537 17.036 24.4124L17.0476 24.3612L17.3094 23.5205C17.2947 23.5009 16.8663 22.9956 16.8663 22.9956C16.6956 23.0544 16.5531 23.0642 16.3143 23.0642C16.0682 23.0642 15.7906 23.0348 15.49 22.976C15.4596 22.9695 15.4314 22.9662 15.4031 22.9662C15.3664 22.9662 15.3633 22.9695 15.3539 22.9879L15.3015 23.0772L15.2062 23.2406L15.027 23.1981L14.23 23.0032L14.121 23.1905L14.1367 23.2101L14.2341 23.3212L14.1912 23.4661C14.1326 23.6555 13.943 23.8766 13.8843 23.9376L13.6853 24.1597L13.5041 23.9213L13.3679 23.7426C13.2234 23.5749 13.1909 23.3201 13.2716 23.0522C13.2695 23.0544 13.2663 23.0555 13.2632 23.0565L13.039 23.1535L12.9374 22.9248L12.8662 22.7626C12.7436 22.4772 12.7887 22.0601 13.1186 21.8085L13.7607 21.4318L14.3713 21.557C14.378 21.5293 14.3862 21.4691 14.3947 21.4065C14.405 21.3315 14.4156 21.253 14.4248 21.2227C14.4133 21.2216 14.4028 21.2183 14.3902 21.2183L14.0382 21.3545L13.6989 21.1116C13.6989 21.1116 13.5659 20.9788 13.6863 20.8459L14.0152 20.3286L13.1825 19.2417L14.4625 19.7885L14.5473 19.6785L14.7202 19.4628L14.9171 19.6567C14.9726 19.7122 15.004 19.7808 15.0197 19.8494C15.3727 19.9921 16.0053 20.4136 16.0608 21.0985L15.8629 21.1813V21.1857C15.9079 21.2423 15.9456 21.2652 15.9571 21.2673L16.8716 21.361C16.8873 21.358 16.906 21.352 16.9266 21.3453C16.9361 21.3423 16.9461 21.339 16.9564 21.3359C17.0695 21.2957 17.2403 21.238 17.4425 21.238C17.6069 21.238 17.765 21.2761 17.919 21.3512C17.9745 21.3294 18.0437 21.3131 18.1243 21.3076L18.1683 21.3066C18.657 21.3066 18.901 21.6859 19.0958 21.9885L19.0963 21.9894C19.1288 22.0427 19.1613 22.0917 19.1948 22.1407C19.3666 22.3912 19.5886 22.7571 19.5981 22.7734L19.6986 22.9368L19.575 23.086C19.4797 23.2003 19.3373 23.3343 19.0921 23.3343C19.0418 23.3343 18.9863 23.3288 18.9266 23.3168C18.8743 23.3071 18.8261 23.2907 18.781 23.2711C18.7759 23.306 18.7693 23.3458 18.7629 23.384C18.7601 23.4005 18.7574 23.4168 18.7549 23.4323ZM20.1584 14.839C20.1584 14.4633 20.2642 14.0853 20.3909 13.7368V13.7358H17.4822C17.036 14.1953 16.6076 14.3663 16.2253 14.4055C16.1562 14.4131 16.086 14.4175 16.0148 14.4175H16.0096H16.0053C15.9341 14.4175 15.8629 14.4131 15.7937 14.4055C15.7267 14.4001 15.6566 14.3881 15.5864 14.3717C15.5612 14.4752 15.5288 14.6909 15.6199 14.8966C15.7006 15.0829 15.865 15.2212 16.1049 15.3137L16.1855 15.3464L16.1866 15.4368C16.1866 15.4641 16.2054 16.051 16.8192 16.2132C16.9187 16.1065 17.0098 16.0086 17.0779 15.9279C16.9522 15.6208 17.0182 15.3072 17.2005 15.1537C17.1932 15.1852 17.1125 15.9551 17.7053 16.2405L17.8027 16.2884L17.7734 16.3973C17.7629 16.4289 17.566 17.1738 18.2835 17.4504L18.4102 17.5004L18.3537 17.629C18.3401 17.6573 18.0593 18.3325 18.7224 18.7158H20.1595V17.5288C19.6483 17.4634 19.4315 17.0366 19.376 16.7338C19.1382 16.6914 18.9549 16.5846 18.8282 16.4103C18.5592 16.0423 18.7366 15.7021 18.7804 15.618C18.7857 15.6077 18.7891 15.6013 18.7894 15.5991C18.7883 15.6023 18.7894 16.0053 19.0283 16.2536C19.1466 16.3733 19.2869 16.467 19.4985 16.4877L19.6033 16.4975L19.6127 16.6086C19.6148 16.6325 19.6724 17.1782 20.1595 17.2631L20.1584 14.839ZM18.7192 11.6296L18.1515 11.2866L17.567 10.9392L16.0085 11.8213L16.0043 11.8181L16.0012 11.8213L14.4426 10.9392L13.8592 11.2866L13.2914 11.6296H13.2851L13.1406 11.7156C13.4622 11.8072 13.7063 11.9727 13.9126 12.1915C13.9168 12.1955 13.9204 12.1996 13.9239 12.2037C13.9283 12.2086 13.9325 12.2135 13.9377 12.2177C13.9827 12.2689 14.0278 12.3244 14.0718 12.38C14.0823 12.393 14.0917 12.405 14.1022 12.4202C14.143 12.4758 14.1828 12.5346 14.2227 12.5945C14.2273 12.6012 14.2319 12.6085 14.2368 12.6161C14.2406 12.6222 14.2446 12.6285 14.2488 12.6348C14.296 12.7088 14.3399 12.785 14.3839 12.8635C14.7883 13.5877 15.4335 14.02 16.0064 14.0211C16.5804 14.02 17.2256 13.5877 17.6299 12.8635C17.675 12.7829 17.72 12.7045 17.7671 12.6315C17.7744 12.6218 17.7818 12.6109 17.7881 12.5999C17.8279 12.5368 17.8687 12.4769 17.9127 12.4181C17.918 12.4114 17.923 12.4047 17.9278 12.3982C17.9315 12.3931 17.9352 12.3881 17.9389 12.3833C17.9829 12.3255 18.03 12.2689 18.0771 12.2166C18.0798 12.2139 18.0824 12.2111 18.085 12.2083C18.0897 12.2031 18.0945 12.198 18.0992 12.1938C18.3045 11.9748 18.5496 11.8082 18.8701 11.7156L18.7276 11.6296H18.7192ZM16.1404 11.2365L17.3827 10.5559L17.8258 7.88674L16.1404 8.48131V11.2365ZM14.1577 7.41957L16.0053 8.17858L17.853 7.41957C17.697 7.03298 16.9721 6.70404 16.0053 6.70297C15.0396 6.70404 14.3148 7.03298 14.1577 7.41957Z" fill="#333333"/>
</g>
<path d="M52.845 16.405L57.21 11.32H55.05L51.15 16.075H51.12V11.32H49.32V22H51.12V16.855H51.15L55.275 22H57.6L52.845 16.405ZM64.3163 14.38H62.5463L60.5813 20.05H60.5513L58.6463 14.38H56.8162L59.6063 22.06C59.2463 23.11 58.8413 23.455 57.9113 23.455C57.6413 23.455 57.3863 23.41 57.1913 23.35V24.745C57.4163 24.805 57.7163 24.85 58.0463 24.85C59.8163 24.85 60.6562 24.265 61.3763 22.33L64.3163 14.38ZM72.0305 22V14.38H65.3255V22H67.0355V15.685H70.3205V22H72.0305ZM81.7171 22V14.38H79.1821L77.4271 17.47C76.8721 18.46 76.3471 19.48 75.8821 20.47H75.8521C75.9121 19.405 75.9421 18.325 75.9421 17.275V14.38H74.2171V22H76.7521L78.5071 18.91C79.0621 17.92 79.5871 16.9 80.0371 15.91H80.0671C80.0221 16.975 79.9921 18.055 79.9921 19.12V22H81.7171ZM89.5129 15.685V14.38H82.7629V15.685H85.2829V22H87.0079V15.685H89.5129ZM92.2601 17.02V14.38H90.5501V22H94.0301C95.9801 22 97.0301 21.1 97.0301 19.51C97.0301 17.92 95.9801 17.02 94.0301 17.02H92.2601ZM92.2601 18.295H93.8501C94.8101 18.295 95.3051 18.7 95.3051 19.51C95.3051 20.335 94.8101 20.725 93.8501 20.725H92.2601V18.295ZM102.078 14.38V22H105.543C107.388 22 108.453 21.22 108.453 19.87C108.453 18.91 107.898 18.295 106.908 18.1V18.07C107.793 17.83 108.273 17.32 108.273 16.405C108.273 15.1 107.298 14.38 105.318 14.38H102.078ZM103.743 15.55H105.093C106.083 15.55 106.578 15.88 106.578 16.57C106.578 17.26 106.083 17.59 105.093 17.59H103.743V15.55ZM103.743 18.685H105.123C106.203 18.685 106.713 19.03 106.713 19.75C106.713 20.485 106.203 20.83 105.123 20.83H103.743V18.685ZM120.477 22L116.967 17.86L120.117 14.38H118.122L115.347 17.5H115.317V14.38H113.607V22H115.317V18.31H115.347L118.317 22H120.477ZM125.653 14.185C124.693 14.185 123.838 14.65 123.388 15.43H123.358V14.38H121.693V24.775H123.403V21.01H123.433C123.868 21.745 124.723 22.18 125.668 22.18C127.603 22.18 128.833 20.62 128.833 18.19C128.833 15.76 127.588 14.185 125.653 14.185ZM125.158 15.52C126.313 15.52 127.048 16.57 127.048 18.19C127.048 19.81 126.313 20.86 125.158 20.86C124.048 20.86 123.313 19.84 123.313 18.19C123.313 16.525 124.048 15.52 125.158 15.52ZM133.808 20.965C132.743 20.965 131.873 20.26 131.813 18.535H137.408C137.408 17.8 137.348 17.23 137.198 16.75C136.778 15.16 135.518 14.155 133.778 14.155C131.468 14.155 130.118 15.85 130.118 18.1C130.118 20.56 131.483 22.225 133.808 22.225C135.803 22.225 137.033 21.07 137.318 19.705H135.563C135.413 20.44 134.783 20.965 133.808 20.965ZM133.778 15.415C134.798 15.415 135.578 16.075 135.698 17.41H131.843C131.993 16.09 132.743 15.415 133.778 15.415ZM146.81 20.695H145.775V14.38H139.925C139.73 18.49 139.385 19.885 138.875 20.695H137.945V24.4H139.655V22H145.1V24.4H146.81V20.695ZM144.065 15.685V20.695H140.81C141.14 19.765 141.41 18.28 141.56 15.685H144.065ZM155.574 22V14.38H153.039L151.284 17.47C150.729 18.46 150.204 19.48 149.739 20.47H149.709C149.769 19.405 149.799 18.325 149.799 17.275V14.38H148.074V22H150.609L152.364 18.91C152.919 17.92 153.444 16.9 153.894 15.91H153.924C153.879 16.975 153.849 18.055 153.849 19.12V22H155.574ZM163.37 15.685V14.38H156.62V15.685H159.14V22H160.865V15.685H163.37Z" fill="#333333"/>
</svg>
