<svg width="75" height="32" viewBox="0 0 75 32" fill="none" xmlns="http://www.w3.org/2000/svg">
<g clip-path="url(#clip0_1141_314)">
<path fill-rule="evenodd" clip-rule="evenodd" d="M33.9875 10.3644V15.2348H36.1019C36.7435 15.2494 37.2976 15.1619 37.7642 15.0015C38.2162 14.8411 38.5808 14.5786 38.8141 14.214C39.0474 13.8495 39.1786 13.3683 39.1786 12.7704C39.1786 11.9538 38.9453 11.356 38.4641 10.9623C37.9975 10.5686 37.2393 10.3644 36.2331 10.3644H33.9875ZM33.9875 22.2778V17.4512H36.0873C37.3705 17.4512 38.4787 17.2908 39.3682 16.9846C40.2577 16.6784 40.9576 16.1826 41.4534 15.4972C41.9492 14.8119 42.1971 13.9078 42.1971 12.7704C42.1971 11.2393 41.7013 10.0874 40.6952 9.3291C39.689 8.55625 38.1579 8.17712 36.1019 8.17712H33.9875H32.471H31.0273V22.2778H33.9875ZM53.5947 21.0217L53.5947 21.0239C53.6093 21.432 53.653 21.8547 53.6968 22.2774L53.6968 22.2779H50.8533C50.8242 22.1758 50.7804 22.0154 50.7367 21.8259C50.6784 21.6363 50.6492 21.4467 50.62 21.2572H50.5179C50.27 21.4467 50.0076 21.6363 49.7013 21.8113C49.3951 22.0009 49.016 22.1467 48.564 22.2488C48.1119 22.3654 47.5578 22.4237 46.9162 22.4237C45.7788 22.4237 44.8747 22.1467 44.1894 21.5926C43.504 21.0385 43.1687 20.251 43.1687 19.2449C43.1687 18.4429 43.402 17.8013 43.854 17.3055C44.3061 16.8097 45.0205 16.4306 45.9684 16.2118C46.9162 15.9931 48.1703 15.8619 49.6868 15.8619H50.62V15.4536C50.62 15.1036 50.5325 14.812 50.3429 14.5787C50.1534 14.3453 49.8909 14.1849 49.5264 14.0975C49.1618 14.01 48.7389 13.9662 48.214 13.9662C47.6745 13.9662 47.1349 14.01 46.5808 14.0975C46.0267 14.1849 45.5309 14.3016 45.0934 14.4474C44.656 14.5932 44.2915 14.7391 44.0144 14.8849V12.7705C44.4664 12.5372 45.0935 12.333 45.8955 12.1726C46.6975 11.9977 47.6161 11.9248 48.666 11.9248C49.7743 11.9248 50.6929 12.0268 51.4074 12.2601C52.122 12.4789 52.6615 12.858 53.026 13.3829C53.3906 13.9079 53.5655 14.6078 53.5655 15.4682V19.7844C53.5655 20.2065 53.5801 20.6141 53.5947 21.0217ZM50.6346 17.5825H49.7597C48.8848 17.5825 48.1848 17.6263 47.6599 17.7284C47.1349 17.8304 46.7558 17.9908 46.5225 18.2096C46.2892 18.4429 46.1725 18.7491 46.1725 19.1428C46.1725 19.4344 46.2454 19.6969 46.3767 19.9011C46.5079 20.1052 46.7266 20.2656 47.0037 20.3823C47.2807 20.4989 47.6453 20.5718 48.0828 20.5718C48.666 20.5718 49.1618 20.4698 49.5993 20.2802C50.0221 20.0906 50.3721 19.8282 50.6492 19.4928V17.5825H50.6346ZM56.255 23.0362V25.1506C56.7946 25.3402 57.3632 25.4277 57.9611 25.4131C58.5735 25.4131 59.1277 25.3402 59.5797 25.209C60.0463 25.0777 60.4546 24.859 60.8191 24.5528C61.1837 24.2465 61.5045 23.882 61.8107 23.43C62.1024 22.9779 62.3794 22.453 62.6419 21.8259L66.7686 12.0706H63.9688L60.9842 19.7135L57.8007 12.0706H54.7385L59.4186 22.5098C59.3528 22.6159 59.2854 22.7136 59.2152 22.8029C59.0548 23.0071 58.8506 23.1675 58.6173 23.2696C58.384 23.3716 58.0923 23.4154 57.7424 23.4154C57.407 23.4154 57.1299 23.3862 56.8966 23.3133C56.6487 23.255 56.4446 23.1529 56.255 23.0362Z" fill="black"/>
<rect x="7.16016" y="6.14368" width="19.4475" height="19.4475" rx="9.72376" fill="#FC3F1D"/>
<path d="M18.2544 21.7115H20.2859V10.043H17.331C14.3593 10.043 12.7979 11.5708 12.7979 13.8205C12.7979 15.617 13.6542 16.6747 15.182 17.766L12.5293 21.7115H14.7287L17.6836 17.2959L16.6594 16.6076C15.417 15.7681 14.8126 15.1133 14.8126 13.703C14.8126 12.4606 15.6857 11.6212 17.3478 11.6212H18.2544V21.7115Z" fill="white"/>
<path fill-rule="evenodd" clip-rule="evenodd" d="M16 0L58.6667 0C67.5032 0 74.6667 7.16345 74.6667 16C74.6667 24.8366 67.5032 32 58.6667 32H16C7.16343 32 0 24.8366 0 16C0 7.16345 7.16345 0 16 0ZM16 1.41436C7.94458 1.41436 1.41436 7.94458 1.41436 16C1.41436 24.0554 7.94456 30.5856 16 30.5856H58.6667C66.7221 30.5856 73.2523 24.0554 73.2523 16C73.2523 7.94458 66.7221 1.41436 58.6667 1.41436H16Z" fill="black"/>
</g>
<defs>
<clipPath id="clip0_1141_314">
<rect width="74.6667" height="32" fill="white"/>
</clipPath>
</defs>
</svg>
